%
M48
M72
T01C0.0197
T02C0.0276
T03C0.0315
T04C0.0354
T05C0.0400
T06C0.0472
T07C0.0551
T08C0.0591
T09C0.0866
T10C0.1300
T11C0.1500
%
T01
X26950Y18430
X27730Y18430
X28680Y18790
X29540Y18680
X30320Y18680
X30320Y19670
X29540Y19670
X28680Y19570
X28740Y20930
X27960Y20930
X26980Y20500
X26980Y19720
X29690Y21080
X30470Y21080
X29300Y21960
X28520Y21960
X27690Y21910
X26910Y21910
T02
X18180Y15618
X18680Y11493
X24180Y9930
X28868Y9930
X42618Y12743
X42930Y16930
X44680Y25305
X49430Y25118
X49430Y27680
X48118Y29680
X47243Y29680
X42430Y32430
X41743Y30055
X40555Y28743
X39368Y29680
X35555Y29743
X33180Y31930
X31680Y31930
X27680Y29430
X15680Y26305
X12555Y26680
X12555Y29868
X13868Y31805
X8555Y31618
X7680Y34180
X5180Y31618
X46680Y33930
X48680Y33930
T03
X47680Y32680
X47180Y31993
X44305Y33180
X41680Y34118
X38618Y32930
X38618Y31243
X36055Y33618
X35055Y33618
X34368Y31680
X31680Y29305
X29180Y32993
X25180Y32243
X22743Y33180
X20055Y32930
X17243Y32430
X16680Y31930
X17243Y31430
X16680Y30930
X15180Y31055
X16680Y32930
X17243Y33430
X13868Y34430
X11180Y34430
X11180Y31493
X1805Y31618
X1805Y35055
X10680Y24430
X10680Y22430
X13430Y19430
X13430Y17743
X14680Y16368
X14680Y15430
X14680Y14493
X16930Y13555
X19930Y13555
X25930Y17180
X17368Y20930
X13430Y11618
X33680Y9930
X36680Y9930
X39930Y9930
X42930Y9930
X46805Y11930
X46805Y13555
X46430Y14680
X48930Y15930
X46430Y17680
X48930Y18930
X48930Y21930
X48930Y22930
X48930Y23930
X48118Y26430
X45555Y26055
X41993Y13618
X39805Y12618
X48930Y13305
X55055Y9805
T04
X51930Y9180
X51930Y8180
X50930Y8180
X50930Y9180
X50930Y10430
X51930Y10430
X51930Y11430
X51930Y12430
X50930Y12430
X50930Y11430
X50930Y13430
X50930Y14430
X51930Y14430
X51930Y13430
X51930Y16430
X50930Y16430
X51930Y17430
X51930Y18430
X50930Y18430
X51930Y19430
X51930Y24680
X50930Y24680
X51930Y29555
X51930Y30555
X50930Y30555
X51930Y31680
X52180Y37180
X51180Y37180
X53180Y37180
X48680Y37180
X47680Y37180
X46680Y37180
X45680Y37180
X43180Y37180
X42180Y37180
X39680Y37180
X38680Y37180
X34180Y37180
X33180Y37180
X32180Y37180
X31180Y37180
X30180Y37180
X29180Y37180
X28180Y37180
X28180Y36180
X29180Y36180
X30180Y36180
X31180Y36180
X32180Y36180
X33180Y36180
X34180Y36180
X26180Y35180
X25180Y35180
X25180Y34180
X26180Y34180
X26180Y28180
X26180Y28180
X25180Y28180
X25180Y28180
X24180Y28180
X24180Y28180
X23180Y28180
X23180Y28180
X22680Y27180
X22680Y27180
X23680Y27180
X23680Y27180
X24680Y27180
X24680Y27180
X25680Y27180
X25680Y27180
X26680Y27180
X26680Y27180
X27680Y27180
X27680Y27180
X28680Y27180
X28680Y27180
X29680Y27180
X29680Y27180
X30680Y27180
X30680Y27180
X31680Y27180
X31680Y27180
X32680Y27180
X32680Y27180
X33680Y27180
X33680Y27180
X34680Y27180
X34680Y27180
X34180Y28180
X34180Y28180
X33180Y28180
X33180Y28180
X32180Y28180
X32180Y28180
X31180Y28180
X31180Y28180
X30180Y28180
X30180Y28180
X29180Y28180
X29180Y28180
X28180Y28180
X28180Y28180
X27180Y28180
X27180Y28180
X21680Y26180
X21680Y26180
X20680Y25680
X20680Y25680
X21680Y25180
X21680Y25180
X20680Y24680
X20680Y24680
X21680Y24180
X21680Y24180
X20680Y23680
X20680Y23680
X21680Y23180
X21680Y23180
X20680Y22680
X20680Y22680
X21680Y22180
X21680Y22180
X20680Y21680
X20680Y21680
X21680Y21180
X21680Y21180
X20680Y20680
X20680Y20680
X21680Y20180
X21680Y20180
X20680Y19680
X20680Y19680
X21680Y19180
X21680Y19180
X20680Y18680
X20680Y18680
X21680Y18180
X21680Y18180
X20680Y17680
X20680Y17680
X21680Y17180
X21680Y17180
X20680Y16680
X20680Y16680
X21680Y16180
X21680Y16180
X20680Y15680
X20680Y15680
X21680Y15180
X21680Y15180
X20680Y14680
X20680Y14680
X21680Y14180
X21680Y14180
X22680Y13180
X22680Y13180
X23680Y13180
X23680Y13180
X24680Y13180
X24680Y13180
X25680Y13180
X25680Y13180
X26680Y13180
X26680Y13180
X27680Y13180
X27680Y13180
X28680Y13180
X28680Y13180
X29680Y13180
X29680Y13180
X30680Y13180
X30680Y13180
X31680Y13180
X31680Y13180
X32680Y13180
X32680Y13180
X33680Y13180
X33680Y13180
X34680Y13180
X34680Y13180
X34180Y12180
X34180Y12180
X33180Y12180
X33180Y12180
X32180Y12180
X32180Y12180
X31180Y12180
X31180Y12180
X30180Y12180
X30180Y12180
X29180Y12180
X29180Y12180
X28180Y12180
X28180Y12180
X27180Y12180
X27180Y12180
X26180Y12180
X26180Y12180
X25180Y12180
X25180Y12180
X24180Y12180
X24180Y12180
X23180Y12180
X23180Y12180
X12180Y12743
X12180Y13805
X7180Y9993
X16743Y27805
X8680Y37180
X7680Y37180
X6680Y37180
X5680Y37180
X35680Y26180
X36680Y25680
X35680Y25180
X36680Y24680
X35680Y24180
X36680Y23680
X35680Y23180
X36680Y22680
X35680Y22180
X36680Y21680
X35680Y21180
X36680Y20680
X35680Y20180
X36680Y19680
X35680Y19180
X36680Y18680
X35680Y18180
X36680Y17680
X35680Y17180
X36680Y16680
X35680Y16180
X36680Y15680
X35680Y15180
X36680Y14680
X35680Y14180
X39430Y18118
X39430Y19118
X39430Y20118
X39430Y21118
X39430Y22118
X42680Y21930
X42680Y22930
X42680Y23930
X42680Y20930
X42680Y19930
X42680Y18930
T05
X56180Y15710
X57180Y15170
X56180Y14630
X57180Y14090
X56180Y13550
X57180Y13010
X56180Y12470
X57180Y11930
X56180Y11390
X57180Y10850
X56180Y10310
X57180Y9770
X56180Y9230
X57180Y8690
X56180Y8150
X56180Y24650
X57180Y25190
X56180Y25730
X57180Y26270
X56180Y26810
X57180Y27350
X56180Y27890
X57180Y28430
X56180Y28970
X57180Y29510
X56180Y30050
X57180Y30590
X56180Y31130
X57180Y31670
X56180Y32210
X19840Y36180
X18760Y36180
X17680Y36180
X16600Y36180
X15520Y36180
X16060Y37180
X17140Y37180
X18220Y37180
X19300Y37180
T06
X14930Y24430
X15180Y23430
X14930Y22430
T07
X5560Y14310
X1800Y14310
X1800Y8050
X4310Y8050
X5560Y8050
T08
X22030Y6290
X26830Y6290
X27630Y3930
X26830Y1570
X22030Y1570
T09
X15980Y3180
X12180Y3180
X8380Y3180
X32780Y3180
X36580Y3180
X40280Y3180
X44080Y3180
X47780Y3180
X51580Y3180
T10
X56680Y5370
X56680Y18490
X56680Y21870
X56680Y34990
X22640Y36680
X12720Y36680
T11
X2180Y2180
X7680Y23430
X2180Y38180
X58180Y38180
X58180Y2180
M30
