G75*
%MOIN*%
%OFA0B0*%
%FSLAX24Y24*%
%IPPOS*%
%LPD*%
%AMOC8*
5,1,8,0,0,1.08239X$1,22.5*
%
%ADD10R,0.6250X0.8875*%
%ADD11C,0.2600*%
%ADD12OC8,0.0660*%
%ADD13C,0.2060*%
%ADD14C,0.0591*%
%ADD15C,0.1560*%
%ADD16C,0.0946*%
%ADD17C,0.0887*%
%ADD18R,0.0940X0.0540*%
%ADD19R,0.0926X0.1477*%
%ADD20R,0.2560X0.2060*%
%ADD21R,0.1060X0.0760*%
%ADD22C,0.0417*%
%ADD23R,0.0580X0.0660*%
%ADD24R,0.0660X0.0580*%
%ADD25R,0.1060X0.1460*%
%ADD26R,0.1660X0.1260*%
%ADD27R,0.0660X0.0860*%
%ADD28C,0.0535*%
%ADD29R,0.0860X0.0660*%
%ADD30C,0.0496*%
%ADD31R,0.1460X0.1060*%
%ADD32R,0.0660X0.1060*%
%ADD33R,0.1060X0.0660*%
%ADD34R,0.1260X0.1660*%
%ADD35C,0.2310*%
%ADD36C,0.0769*%
D10*
X009680Y015493D03*
D11*
X002180Y002180D03*
X002180Y038180D03*
X058180Y038180D03*
X058180Y002180D03*
D12*
X056180Y008150D03*
X057180Y008690D03*
X056180Y009230D03*
X057180Y009770D03*
X056180Y010310D03*
X057180Y010850D03*
X056180Y011390D03*
X057180Y011930D03*
X056180Y012470D03*
X057180Y013010D03*
X056180Y013550D03*
X057180Y014090D03*
X056180Y014630D03*
X057180Y015170D03*
X056180Y015710D03*
X056180Y024650D03*
X057180Y025190D03*
X056180Y025730D03*
X057180Y026270D03*
X056180Y026810D03*
X057180Y027350D03*
X056180Y027890D03*
X057180Y028430D03*
X056180Y028970D03*
X057180Y029510D03*
X056180Y030050D03*
X057180Y030590D03*
X056180Y031130D03*
X057180Y031670D03*
X056180Y032210D03*
X019840Y036180D03*
X018760Y036180D03*
X017680Y036180D03*
X016600Y036180D03*
X015520Y036180D03*
X016060Y037180D03*
X017140Y037180D03*
X018220Y037180D03*
X019300Y037180D03*
D13*
X022640Y036680D03*
X012720Y036680D03*
X056680Y034990D03*
X056680Y021870D03*
X056680Y018490D03*
X056680Y005370D03*
D14*
X051930Y008180D03*
X051930Y009180D03*
X050930Y009180D03*
X050930Y008180D03*
X050930Y010430D03*
X051930Y010430D03*
X051930Y011430D03*
X051930Y012430D03*
X050930Y012430D03*
X050930Y011430D03*
X050930Y013430D03*
X050930Y014430D03*
X051930Y014430D03*
X051930Y013430D03*
X051930Y016430D03*
X050930Y016430D03*
X051930Y017430D03*
X051930Y018430D03*
X050930Y018430D03*
X051930Y019430D03*
X051930Y024680D03*
X050930Y024680D03*
X051930Y029555D03*
X051930Y030555D03*
X050930Y030555D03*
X051930Y031680D03*
X052180Y037180D03*
X051180Y037180D03*
X053180Y037180D03*
X048680Y037180D03*
X047680Y037180D03*
X046680Y037180D03*
X045680Y037180D03*
X043180Y037180D03*
X042180Y037180D03*
X039680Y037180D03*
X038680Y037180D03*
X034180Y037180D03*
X033180Y037180D03*
X032180Y037180D03*
X031180Y037180D03*
X030180Y037180D03*
X029180Y037180D03*
X028180Y037180D03*
X028180Y036180D03*
X029180Y036180D03*
X030180Y036180D03*
X031180Y036180D03*
X032180Y036180D03*
X033180Y036180D03*
X034180Y036180D03*
X026180Y035180D03*
X025180Y035180D03*
X025180Y034180D03*
X026180Y034180D03*
X026180Y028180D03*
X026180Y028180D03*
X025180Y028180D03*
X025180Y028180D03*
X024180Y028180D03*
X024180Y028180D03*
X023180Y028180D03*
X023180Y028180D03*
X022680Y027180D03*
X022680Y027180D03*
X023680Y027180D03*
X023680Y027180D03*
X024680Y027180D03*
X024680Y027180D03*
X025680Y027180D03*
X025680Y027180D03*
X026680Y027180D03*
X026680Y027180D03*
X027680Y027180D03*
X027680Y027180D03*
X028680Y027180D03*
X028680Y027180D03*
X029680Y027180D03*
X029680Y027180D03*
X030680Y027180D03*
X030680Y027180D03*
X031680Y027180D03*
X031680Y027180D03*
X032680Y027180D03*
X032680Y027180D03*
X033680Y027180D03*
X033680Y027180D03*
X034680Y027180D03*
X034680Y027180D03*
X034180Y028180D03*
X034180Y028180D03*
X033180Y028180D03*
X033180Y028180D03*
X032180Y028180D03*
X032180Y028180D03*
X031180Y028180D03*
X031180Y028180D03*
X030180Y028180D03*
X030180Y028180D03*
X029180Y028180D03*
X029180Y028180D03*
X028180Y028180D03*
X028180Y028180D03*
X027180Y028180D03*
X027180Y028180D03*
X021680Y026180D03*
X021680Y026180D03*
X020680Y025680D03*
X020680Y025680D03*
X021680Y025180D03*
X021680Y025180D03*
X020680Y024680D03*
X020680Y024680D03*
X021680Y024180D03*
X021680Y024180D03*
X020680Y023680D03*
X020680Y023680D03*
X021680Y023180D03*
X021680Y023180D03*
X020680Y022680D03*
X020680Y022680D03*
X021680Y022180D03*
X021680Y022180D03*
X020680Y021680D03*
X020680Y021680D03*
X021680Y021180D03*
X021680Y021180D03*
X020680Y020680D03*
X020680Y020680D03*
X021680Y020180D03*
X021680Y020180D03*
X020680Y019680D03*
X020680Y019680D03*
X021680Y019180D03*
X021680Y019180D03*
X020680Y018680D03*
X020680Y018680D03*
X021680Y018180D03*
X021680Y018180D03*
X020680Y017680D03*
X020680Y017680D03*
X021680Y017180D03*
X021680Y017180D03*
X020680Y016680D03*
X020680Y016680D03*
X021680Y016180D03*
X021680Y016180D03*
X020680Y015680D03*
X020680Y015680D03*
X021680Y015180D03*
X021680Y015180D03*
X020680Y014680D03*
X020680Y014680D03*
X021680Y014180D03*
X021680Y014180D03*
X022680Y013180D03*
X022680Y013180D03*
X023680Y013180D03*
X023680Y013180D03*
X024680Y013180D03*
X024680Y013180D03*
X025680Y013180D03*
X025680Y013180D03*
X026680Y013180D03*
X026680Y013180D03*
X027680Y013180D03*
X027680Y013180D03*
X028680Y013180D03*
X028680Y013180D03*
X029680Y013180D03*
X029680Y013180D03*
X030680Y013180D03*
X030680Y013180D03*
X031680Y013180D03*
X031680Y013180D03*
X032680Y013180D03*
X032680Y013180D03*
X033680Y013180D03*
X033680Y013180D03*
X034680Y013180D03*
X034680Y013180D03*
X034180Y012180D03*
X034180Y012180D03*
X033180Y012180D03*
X033180Y012180D03*
X032180Y012180D03*
X032180Y012180D03*
X031180Y012180D03*
X031180Y012180D03*
X030180Y012180D03*
X030180Y012180D03*
X029180Y012180D03*
X029180Y012180D03*
X028180Y012180D03*
X028180Y012180D03*
X027180Y012180D03*
X027180Y012180D03*
X026180Y012180D03*
X026180Y012180D03*
X025180Y012180D03*
X025180Y012180D03*
X024180Y012180D03*
X024180Y012180D03*
X023180Y012180D03*
X023180Y012180D03*
X012180Y012743D03*
X012180Y013805D03*
X007180Y009993D03*
X016743Y027805D03*
X008680Y037180D03*
X007680Y037180D03*
X006680Y037180D03*
X005680Y037180D03*
X035680Y026180D03*
X036680Y025680D03*
X035680Y025180D03*
X036680Y024680D03*
X035680Y024180D03*
X036680Y023680D03*
X035680Y023180D03*
X036680Y022680D03*
X035680Y022180D03*
X036680Y021680D03*
X035680Y021180D03*
X036680Y020680D03*
X035680Y020180D03*
X036680Y019680D03*
X035680Y019180D03*
X036680Y018680D03*
X035680Y018180D03*
X036680Y017680D03*
X035680Y017180D03*
X036680Y016680D03*
X035680Y016180D03*
X036680Y015680D03*
X035680Y015180D03*
X036680Y014680D03*
X035680Y014180D03*
X039430Y018118D03*
X039430Y019118D03*
X039430Y020118D03*
X039430Y021118D03*
X039430Y022118D03*
X042680Y021930D03*
X042680Y022930D03*
X042680Y023930D03*
X042680Y020930D03*
X042680Y019930D03*
X042680Y018930D03*
D15*
X044080Y003180D03*
X047780Y003180D03*
X051580Y003180D03*
X040280Y003180D03*
X036580Y003180D03*
X032780Y003180D03*
X015980Y003180D03*
X012180Y003180D03*
X008380Y003180D03*
D16*
X022030Y001570D03*
X026830Y001570D03*
X027630Y003930D03*
X026830Y006290D03*
X022030Y006290D03*
D17*
X005560Y008050D03*
X004310Y008050D03*
X001800Y008050D03*
X001800Y014310D03*
X005560Y014310D03*
D18*
X013900Y014520D03*
X013900Y015430D03*
X013900Y016340D03*
D19*
X011460Y015430D03*
D20*
X029880Y006680D03*
X029168Y031243D03*
D21*
X026368Y032243D03*
X026368Y030243D03*
X032680Y007680D03*
X032680Y005680D03*
D22*
X027730Y018430D03*
X026950Y018430D03*
X026980Y019720D03*
X026980Y020500D03*
X027960Y020930D03*
X028740Y020930D03*
X029690Y021080D03*
X030470Y021080D03*
X029300Y021960D03*
X028520Y021960D03*
X027690Y021910D03*
X026910Y021910D03*
X028680Y019570D03*
X029540Y019670D03*
X030320Y019670D03*
X030320Y018680D03*
X029540Y018680D03*
X028680Y018790D03*
D23*
X029530Y018680D03*
X030330Y018680D03*
X030330Y019670D03*
X029530Y019670D03*
X028750Y020930D03*
X027950Y020930D03*
X027700Y021910D03*
X026900Y021910D03*
X028510Y021960D03*
X029310Y021960D03*
X029680Y021080D03*
X030480Y021080D03*
X027740Y018430D03*
X026940Y018430D03*
D24*
X026980Y019710D03*
X026980Y020510D03*
X028680Y019580D03*
X028680Y018780D03*
D25*
X027830Y017180D03*
X026030Y017180D03*
D26*
X025680Y005030D03*
X025680Y002830D03*
D27*
X030680Y009930D03*
X031680Y009930D03*
X039680Y007680D03*
X040680Y007680D03*
X041805Y014555D03*
X042805Y014555D03*
X045493Y018930D03*
X046493Y018930D03*
X046555Y021555D03*
X045555Y021555D03*
X045555Y022930D03*
X046555Y022930D03*
X046305Y024930D03*
X047305Y024930D03*
X047305Y026243D03*
X046305Y026243D03*
X041055Y029868D03*
X040055Y029868D03*
X040368Y031243D03*
X039368Y031243D03*
X044680Y034055D03*
X045680Y034055D03*
X047680Y034868D03*
X048680Y034868D03*
X046680Y035680D03*
X045680Y035680D03*
X043180Y035930D03*
X042180Y035930D03*
X047180Y030930D03*
X048180Y030930D03*
X021930Y033180D03*
X020930Y033180D03*
X016680Y030118D03*
X015680Y030118D03*
X013618Y024430D03*
X012618Y024430D03*
X012618Y022430D03*
X013618Y022430D03*
X017930Y013555D03*
X018930Y013555D03*
X004180Y011180D03*
X003180Y011180D03*
D28*
X013430Y011618D03*
X016930Y013555D03*
X014680Y014493D03*
X014680Y015430D03*
X014680Y016368D03*
X013430Y017743D03*
X013430Y019430D03*
X017368Y020930D03*
X010680Y022430D03*
X010680Y024430D03*
X015180Y031055D03*
X016680Y030930D03*
X017243Y031430D03*
X016680Y031930D03*
X017243Y032430D03*
X016680Y032930D03*
X017243Y033430D03*
X020055Y032930D03*
X022743Y033180D03*
X025180Y032243D03*
X029180Y032993D03*
X034368Y031680D03*
X035055Y033618D03*
X036055Y033618D03*
X038618Y032930D03*
X038618Y031243D03*
X041680Y034118D03*
X044305Y033180D03*
X047180Y031993D03*
X047680Y032680D03*
X048118Y026430D03*
X045555Y026055D03*
X048930Y023930D03*
X048930Y022930D03*
X048930Y021930D03*
X048930Y018930D03*
X046430Y017680D03*
X048930Y015930D03*
X046430Y014680D03*
X046805Y013555D03*
X046805Y011930D03*
X048930Y013305D03*
X042930Y009930D03*
X039930Y009930D03*
X036680Y009930D03*
X033680Y009930D03*
X039805Y012618D03*
X041993Y013618D03*
X055055Y009805D03*
X031680Y029305D03*
X025930Y017180D03*
X019930Y013555D03*
X011180Y031493D03*
X011180Y034430D03*
X013868Y034430D03*
X001805Y035055D03*
X001805Y031618D03*
D29*
X011180Y032430D03*
X011180Y033430D03*
X015680Y032930D03*
X015680Y031930D03*
X018243Y032555D03*
X019430Y031930D03*
X019430Y030930D03*
X018243Y033555D03*
X024743Y030243D03*
X024743Y029243D03*
X046430Y016680D03*
X046430Y015680D03*
X048930Y015118D03*
X048930Y014118D03*
X045930Y013243D03*
X045930Y012243D03*
X040930Y012618D03*
X040930Y013618D03*
X036680Y008743D03*
X036680Y007743D03*
X016930Y011493D03*
X016930Y012493D03*
D30*
X018680Y011493D03*
X018180Y015618D03*
X024180Y009930D03*
X028868Y009930D03*
X042618Y012743D03*
X042930Y016930D03*
X044680Y025305D03*
X049430Y025118D03*
X049430Y027680D03*
X048118Y029680D03*
X047243Y029680D03*
X042430Y032430D03*
X041743Y030055D03*
X040555Y028743D03*
X039368Y029680D03*
X035555Y029743D03*
X033180Y031930D03*
X031680Y031930D03*
X027680Y029430D03*
X015680Y026305D03*
X012555Y026680D03*
X012555Y029868D03*
X013868Y031805D03*
X008555Y031618D03*
X007680Y034180D03*
X005180Y031618D03*
X046680Y033930D03*
X048680Y033930D03*
D31*
X014930Y019580D03*
X014930Y017780D03*
X014618Y013455D03*
X014618Y011655D03*
D32*
X034105Y030743D03*
X035505Y030743D03*
X034855Y032618D03*
X036255Y032618D03*
X039355Y032930D03*
X040755Y032930D03*
D33*
X043180Y033355D03*
X043180Y034755D03*
D34*
X004580Y006430D03*
X001780Y006430D03*
D35*
X007680Y023430D03*
D36*
X014930Y022430D03*
X015180Y023430D03*
X014930Y024430D03*
M02*
