G75*
%MOIN*%
%OFA0B0*%
%FSLAX24Y24*%
%IPPOS*%
%LPD*%
%AMOC8*
5,1,8,0,0,1.08239X$1,22.5*
%
%ADD10R,0.0500X0.0500*%
%ADD11R,0.0250X0.0250*%
%ADD12R,0.1187X0.1250*%
%ADD13C,0.2540*%
%ADD14OC8,0.0600*%
%ADD15C,0.2000*%
%ADD16C,0.0531*%
%ADD17C,0.1500*%
%ADD18C,0.0886*%
%ADD19C,0.0827*%
%ADD20R,0.1000X0.1000*%
%ADD21R,0.4098X0.4252*%
%ADD22R,0.0850X0.0420*%
%ADD23R,0.0600X0.0800*%
%ADD24R,0.1600X0.1200*%
%ADD25R,0.0800X0.0600*%
%ADD26R,0.0800X0.0260*%
%ADD27R,0.0472X0.0217*%
%ADD28R,0.0551X0.0394*%
%ADD29R,0.0260X0.0800*%
%ADD30R,0.0217X0.0472*%
%ADD31R,0.0591X0.0079*%
%ADD32R,0.0079X0.0591*%
%ADD33C,0.0357*%
%ADD34C,0.0475*%
%ADD35C,0.0436*%
%ADD36R,0.1400X0.1000*%
%ADD37C,0.0860*%
%ADD38C,0.0160*%
%ADD39C,0.0080*%
%ADD40C,0.2250*%
%ADD41C,0.0709*%
%ADD42C,0.0500*%
%ADD43C,0.0090*%
%ADD44C,0.0180*%
%ADD45C,0.0240*%
%ADD46C,0.1250*%
%ADD47C,0.0320*%
%ADD48C,0.0120*%
D10*
X036743Y035993D03*
D11*
X041555Y031368D03*
X038618Y030430D03*
X011180Y032180D03*
X011180Y033680D03*
X038680Y008555D03*
D12*
X029961Y008118D03*
D13*
X002180Y002180D03*
X002180Y038180D03*
X058180Y038180D03*
X058180Y002180D03*
D14*
X056180Y008150D03*
X057180Y008690D03*
X056180Y009230D03*
X057180Y009770D03*
X056180Y010310D03*
X057180Y010850D03*
X056180Y011390D03*
X057180Y011930D03*
X056180Y012470D03*
X057180Y013010D03*
X056180Y013550D03*
X057180Y014090D03*
X056180Y014630D03*
X057180Y015170D03*
X056180Y015710D03*
X056180Y024650D03*
X057180Y025190D03*
X056180Y025730D03*
X057180Y026270D03*
X056180Y026810D03*
X057180Y027350D03*
X056180Y027890D03*
X057180Y028430D03*
X056180Y028970D03*
X057180Y029510D03*
X056180Y030050D03*
X057180Y030590D03*
X056180Y031130D03*
X057180Y031670D03*
X056180Y032210D03*
X019840Y036180D03*
X018760Y036180D03*
X017680Y036180D03*
X016600Y036180D03*
X015520Y036180D03*
X016060Y037180D03*
X017140Y037180D03*
X018220Y037180D03*
X019300Y037180D03*
D15*
X022640Y036680D03*
X012720Y036680D03*
X056680Y034990D03*
X056680Y021870D03*
X056680Y018490D03*
X056680Y005370D03*
D16*
X051930Y008180D03*
X051930Y009180D03*
X050930Y009180D03*
X050930Y008180D03*
X050930Y010430D03*
X051930Y010430D03*
X051930Y011430D03*
X051930Y012430D03*
X050930Y012430D03*
X050930Y011430D03*
X050930Y013430D03*
X050930Y014430D03*
X051930Y014430D03*
X051930Y013430D03*
X051930Y016430D03*
X050930Y016430D03*
X051930Y017430D03*
X051930Y018430D03*
X050930Y018430D03*
X051930Y019430D03*
X051930Y024680D03*
X050930Y024680D03*
X051930Y029555D03*
X051930Y030555D03*
X050930Y030555D03*
X051930Y031680D03*
X052180Y037180D03*
X051180Y037180D03*
X053180Y037180D03*
X048680Y037180D03*
X047680Y037180D03*
X046680Y037180D03*
X045680Y037180D03*
X043180Y037180D03*
X042180Y037180D03*
X039680Y037180D03*
X038680Y037180D03*
X034180Y037180D03*
X033180Y037180D03*
X032180Y037180D03*
X031180Y037180D03*
X030180Y037180D03*
X029180Y037180D03*
X028180Y037180D03*
X028180Y036180D03*
X029180Y036180D03*
X030180Y036180D03*
X031180Y036180D03*
X032180Y036180D03*
X033180Y036180D03*
X034180Y036180D03*
X026180Y035180D03*
X025180Y035180D03*
X025180Y034180D03*
X026180Y034180D03*
X026180Y028180D03*
X026180Y028180D03*
X025180Y028180D03*
X025180Y028180D03*
X024180Y028180D03*
X024180Y028180D03*
X023180Y028180D03*
X023180Y028180D03*
X022680Y027180D03*
X022680Y027180D03*
X023680Y027180D03*
X023680Y027180D03*
X024680Y027180D03*
X024680Y027180D03*
X025680Y027180D03*
X025680Y027180D03*
X026680Y027180D03*
X026680Y027180D03*
X027680Y027180D03*
X027680Y027180D03*
X028680Y027180D03*
X028680Y027180D03*
X029680Y027180D03*
X029680Y027180D03*
X030680Y027180D03*
X030680Y027180D03*
X031680Y027180D03*
X031680Y027180D03*
X032680Y027180D03*
X032680Y027180D03*
X033680Y027180D03*
X033680Y027180D03*
X034680Y027180D03*
X034680Y027180D03*
X034180Y028180D03*
X034180Y028180D03*
X033180Y028180D03*
X033180Y028180D03*
X032180Y028180D03*
X032180Y028180D03*
X031180Y028180D03*
X031180Y028180D03*
X030180Y028180D03*
X030180Y028180D03*
X029180Y028180D03*
X029180Y028180D03*
X028180Y028180D03*
X028180Y028180D03*
X027180Y028180D03*
X027180Y028180D03*
X021680Y026180D03*
X021680Y026180D03*
X020680Y025680D03*
X020680Y025680D03*
X021680Y025180D03*
X021680Y025180D03*
X020680Y024680D03*
X020680Y024680D03*
X021680Y024180D03*
X021680Y024180D03*
X020680Y023680D03*
X020680Y023680D03*
X021680Y023180D03*
X021680Y023180D03*
X020680Y022680D03*
X020680Y022680D03*
X021680Y022180D03*
X021680Y022180D03*
X020680Y021680D03*
X020680Y021680D03*
X021680Y021180D03*
X021680Y021180D03*
X020680Y020680D03*
X020680Y020680D03*
X021680Y020180D03*
X021680Y020180D03*
X020680Y019680D03*
X020680Y019680D03*
X021680Y019180D03*
X021680Y019180D03*
X020680Y018680D03*
X020680Y018680D03*
X021680Y018180D03*
X021680Y018180D03*
X020680Y017680D03*
X020680Y017680D03*
X021680Y017180D03*
X021680Y017180D03*
X020680Y016680D03*
X020680Y016680D03*
X021680Y016180D03*
X021680Y016180D03*
X020680Y015680D03*
X020680Y015680D03*
X021680Y015180D03*
X021680Y015180D03*
X020680Y014680D03*
X020680Y014680D03*
X021680Y014180D03*
X021680Y014180D03*
X022680Y013180D03*
X022680Y013180D03*
X023680Y013180D03*
X023680Y013180D03*
X024680Y013180D03*
X024680Y013180D03*
X025680Y013180D03*
X025680Y013180D03*
X026680Y013180D03*
X026680Y013180D03*
X027680Y013180D03*
X027680Y013180D03*
X028680Y013180D03*
X028680Y013180D03*
X029680Y013180D03*
X029680Y013180D03*
X030680Y013180D03*
X030680Y013180D03*
X031680Y013180D03*
X031680Y013180D03*
X032680Y013180D03*
X032680Y013180D03*
X033680Y013180D03*
X033680Y013180D03*
X034680Y013180D03*
X034680Y013180D03*
X034180Y012180D03*
X034180Y012180D03*
X033180Y012180D03*
X033180Y012180D03*
X032180Y012180D03*
X032180Y012180D03*
X031180Y012180D03*
X031180Y012180D03*
X030180Y012180D03*
X030180Y012180D03*
X029180Y012180D03*
X029180Y012180D03*
X028180Y012180D03*
X028180Y012180D03*
X027180Y012180D03*
X027180Y012180D03*
X026180Y012180D03*
X026180Y012180D03*
X025180Y012180D03*
X025180Y012180D03*
X024180Y012180D03*
X024180Y012180D03*
X023180Y012180D03*
X023180Y012180D03*
X012180Y012743D03*
X012180Y013805D03*
X007180Y009993D03*
X016743Y027805D03*
X008680Y037180D03*
X007680Y037180D03*
X006680Y037180D03*
X005680Y037180D03*
X035680Y026180D03*
X036680Y025680D03*
X035680Y025180D03*
X036680Y024680D03*
X035680Y024180D03*
X036680Y023680D03*
X035680Y023180D03*
X036680Y022680D03*
X035680Y022180D03*
X036680Y021680D03*
X035680Y021180D03*
X036680Y020680D03*
X035680Y020180D03*
X036680Y019680D03*
X035680Y019180D03*
X036680Y018680D03*
X035680Y018180D03*
X036680Y017680D03*
X035680Y017180D03*
X036680Y016680D03*
X035680Y016180D03*
X036680Y015680D03*
X035680Y015180D03*
X036680Y014680D03*
X035680Y014180D03*
X039430Y018118D03*
X039430Y019118D03*
X039430Y020118D03*
X039430Y021118D03*
X039430Y022118D03*
X042680Y021930D03*
X042680Y022930D03*
X042680Y023930D03*
X042680Y020930D03*
X042680Y019930D03*
X042680Y018930D03*
D17*
X044080Y003180D03*
X047780Y003180D03*
X051580Y003180D03*
X040280Y003180D03*
X036580Y003180D03*
X032780Y003180D03*
X015980Y003180D03*
X012180Y003180D03*
X008380Y003180D03*
D18*
X022030Y001570D03*
X026830Y001570D03*
X027630Y003930D03*
X026830Y006290D03*
X022030Y006290D03*
D19*
X005560Y008050D03*
X004310Y008050D03*
X001800Y008050D03*
X001800Y014310D03*
X005560Y014310D03*
D20*
X011180Y009555D03*
X013180Y009555D03*
D21*
X010680Y023430D03*
D22*
X013960Y023430D03*
X013960Y024430D03*
X013960Y022430D03*
D23*
X015430Y020930D03*
X016430Y020930D03*
X016430Y019580D03*
X016430Y017780D03*
X014430Y017780D03*
X014430Y019580D03*
X024930Y009930D03*
X025930Y009930D03*
X027118Y009930D03*
X028118Y009930D03*
X034680Y009930D03*
X035680Y009930D03*
X037680Y009930D03*
X038680Y009930D03*
X040930Y009930D03*
X041930Y009930D03*
X043930Y009930D03*
X044930Y009930D03*
X040430Y016805D03*
X039430Y016805D03*
X007368Y031618D03*
X006368Y031618D03*
X003993Y031618D03*
X002993Y031618D03*
D24*
X007930Y015205D03*
X010430Y015205D03*
X010430Y012405D03*
X007930Y012405D03*
X042993Y026968D03*
X042993Y029768D03*
D25*
X043180Y031368D03*
X043180Y032368D03*
X049430Y029430D03*
X049430Y028430D03*
X049430Y026930D03*
X049430Y025930D03*
X050180Y020680D03*
X050180Y019680D03*
X048930Y017930D03*
X048930Y016930D03*
X043930Y016930D03*
X043930Y015930D03*
X049555Y009180D03*
X049555Y008180D03*
X040555Y026930D03*
X040555Y027930D03*
X033180Y030118D03*
X031680Y030118D03*
X031680Y031118D03*
X033180Y031118D03*
X033180Y032743D03*
X033180Y033743D03*
X031680Y033743D03*
X031680Y032743D03*
X029180Y033930D03*
X029180Y034930D03*
X013868Y033680D03*
X013868Y032680D03*
X012555Y028743D03*
X012555Y027743D03*
X006680Y032868D03*
X006680Y033868D03*
X001805Y033805D03*
X001805Y032805D03*
X017930Y018805D03*
X017930Y017805D03*
D26*
X017954Y029930D03*
X017954Y030430D03*
X017954Y030930D03*
X017954Y031430D03*
X017954Y031930D03*
X017954Y032430D03*
X017954Y032930D03*
X017954Y033430D03*
X020906Y033430D03*
X020906Y032930D03*
X020906Y032430D03*
X020906Y031930D03*
X020906Y031430D03*
X020906Y030930D03*
X020906Y030430D03*
X020906Y029930D03*
X012390Y032180D03*
X012390Y032680D03*
X012390Y033180D03*
X012390Y033680D03*
X009970Y033680D03*
X009970Y033180D03*
X009970Y032680D03*
X009970Y032180D03*
X039345Y031930D03*
X039345Y032430D03*
X039345Y032930D03*
X039345Y033430D03*
X041765Y033430D03*
X041765Y032930D03*
X041765Y032430D03*
X041765Y031930D03*
X045220Y016930D03*
X045220Y016430D03*
X045220Y015930D03*
X045220Y015430D03*
X047640Y015430D03*
X047640Y015930D03*
X047640Y016430D03*
X047640Y016930D03*
X046140Y013493D03*
X046140Y012993D03*
X046140Y012493D03*
X046140Y011993D03*
X043720Y011993D03*
X043720Y012493D03*
X043720Y012993D03*
X043720Y013493D03*
D27*
X041442Y013492D03*
X041442Y012743D03*
X040418Y012743D03*
X040418Y013118D03*
X040418Y013492D03*
X046106Y026056D03*
X046106Y026804D03*
X047129Y026804D03*
X047129Y026430D03*
X047129Y026056D03*
X041067Y029681D03*
X041067Y030055D03*
X041067Y030429D03*
X040043Y030429D03*
X040043Y029681D03*
D28*
X026801Y029430D03*
X025934Y029056D03*
X025934Y029804D03*
X014863Y026305D03*
X013997Y025931D03*
X013997Y026679D03*
D29*
X017680Y014932D03*
X018180Y014932D03*
X018680Y014932D03*
X019180Y014932D03*
X019180Y012178D03*
X018680Y012178D03*
X018180Y012178D03*
X017680Y012178D03*
X035055Y030470D03*
X035555Y030470D03*
X036055Y030470D03*
X036555Y030470D03*
X036555Y032890D03*
X036055Y032890D03*
X035555Y032890D03*
X035055Y032890D03*
D30*
X047306Y031442D03*
X047680Y031442D03*
X048054Y031442D03*
X048054Y030418D03*
X047306Y030418D03*
D31*
X031278Y022070D03*
X031278Y021912D03*
X031278Y021755D03*
X031278Y021597D03*
X031278Y021440D03*
X031278Y021282D03*
X031278Y021125D03*
X031278Y020967D03*
X031278Y020810D03*
X031278Y020652D03*
X031278Y020495D03*
X031278Y020337D03*
X031278Y020180D03*
X031278Y020023D03*
X031278Y019865D03*
X031278Y019708D03*
X031278Y019550D03*
X031278Y019393D03*
X031278Y019235D03*
X031278Y019078D03*
X031278Y018920D03*
X031278Y018763D03*
X031278Y018605D03*
X031278Y018448D03*
X031278Y018290D03*
X026082Y018290D03*
X026082Y018448D03*
X026082Y018605D03*
X026082Y018763D03*
X026082Y018920D03*
X026082Y019078D03*
X026082Y019235D03*
X026082Y019393D03*
X026082Y019550D03*
X026082Y019708D03*
X026082Y019865D03*
X026082Y020023D03*
X026082Y020180D03*
X026082Y020337D03*
X026082Y020495D03*
X026082Y020652D03*
X026082Y020810D03*
X026082Y020967D03*
X026082Y021125D03*
X026082Y021282D03*
X026082Y021440D03*
X026082Y021597D03*
X026082Y021755D03*
X026082Y021912D03*
X026082Y022070D03*
D32*
X026790Y022778D03*
X026948Y022778D03*
X027105Y022778D03*
X027263Y022778D03*
X027420Y022778D03*
X027578Y022778D03*
X027735Y022778D03*
X027893Y022778D03*
X028050Y022778D03*
X028208Y022778D03*
X028365Y022778D03*
X028523Y022778D03*
X028680Y022778D03*
X028837Y022778D03*
X028995Y022778D03*
X029152Y022778D03*
X029310Y022778D03*
X029467Y022778D03*
X029625Y022778D03*
X029782Y022778D03*
X029940Y022778D03*
X030097Y022778D03*
X030255Y022778D03*
X030412Y022778D03*
X030570Y022778D03*
X030570Y017582D03*
X030412Y017582D03*
X030255Y017582D03*
X030097Y017582D03*
X029940Y017582D03*
X029782Y017582D03*
X029625Y017582D03*
X029467Y017582D03*
X029310Y017582D03*
X029152Y017582D03*
X028995Y017582D03*
X028837Y017582D03*
X028680Y017582D03*
X028523Y017582D03*
X028365Y017582D03*
X028208Y017582D03*
X028050Y017582D03*
X027893Y017582D03*
X027735Y017582D03*
X027578Y017582D03*
X027420Y017582D03*
X027263Y017582D03*
X027105Y017582D03*
X026948Y017582D03*
X026790Y017582D03*
D33*
X026950Y018430D03*
X027730Y018430D03*
X028680Y018790D03*
X029540Y018680D03*
X030320Y018680D03*
X030320Y019670D03*
X029540Y019670D03*
X028680Y019570D03*
X028740Y020930D03*
X027960Y020930D03*
X026980Y020500D03*
X026980Y019720D03*
X029690Y021080D03*
X030470Y021080D03*
X029300Y021960D03*
X028520Y021960D03*
X027690Y021910D03*
X026910Y021910D03*
D34*
X025930Y017180D03*
X019930Y013555D03*
X016930Y013555D03*
X014680Y014493D03*
X014680Y015430D03*
X014680Y016368D03*
X013430Y017743D03*
X013430Y019430D03*
X017368Y020930D03*
X010680Y022430D03*
X010680Y024430D03*
X015180Y031055D03*
X016680Y030930D03*
X017243Y031430D03*
X016680Y031930D03*
X017243Y032430D03*
X016680Y032930D03*
X017243Y033430D03*
X020055Y032930D03*
X022743Y033180D03*
X025180Y032243D03*
X029180Y032993D03*
X034368Y031680D03*
X035055Y033618D03*
X036055Y033618D03*
X038618Y032930D03*
X038618Y031243D03*
X041680Y034118D03*
X044305Y033180D03*
X047180Y031993D03*
X047680Y032680D03*
X048118Y026430D03*
X045555Y026055D03*
X048930Y023930D03*
X048930Y022930D03*
X048930Y021930D03*
X048930Y018930D03*
X046430Y017680D03*
X048930Y015930D03*
X046430Y014680D03*
X046805Y013555D03*
X046805Y011930D03*
X048930Y013305D03*
X042930Y009930D03*
X039930Y009930D03*
X036680Y009930D03*
X033680Y009930D03*
X039805Y012618D03*
X041993Y013618D03*
X055055Y009805D03*
X031680Y029305D03*
X013868Y034430D03*
X011180Y034430D03*
X011180Y031493D03*
X001805Y031618D03*
X001805Y035055D03*
X013430Y011618D03*
D35*
X018680Y011493D03*
X018180Y015618D03*
X024180Y009930D03*
X028868Y009930D03*
X042618Y012743D03*
X042930Y016930D03*
X044680Y025305D03*
X049430Y025118D03*
X049430Y027680D03*
X048118Y029680D03*
X047243Y029680D03*
X042430Y032430D03*
X041743Y030055D03*
X040555Y028743D03*
X039368Y029680D03*
X035555Y029743D03*
X033180Y031930D03*
X031680Y031930D03*
X027680Y029430D03*
X015680Y026305D03*
X012555Y026680D03*
X012555Y029868D03*
X013868Y031805D03*
X008555Y031618D03*
X007680Y034180D03*
X005180Y031618D03*
X046680Y033930D03*
X048680Y033930D03*
D36*
X045680Y032330D03*
X045680Y030530D03*
D37*
X024180Y008180D02*
X021743Y009555D01*
X013180Y009555D01*
X011180Y009555D02*
X009493Y009555D01*
X006180Y006680D01*
X004310Y006680D01*
X004310Y008050D01*
X024180Y008180D02*
X029930Y008180D01*
X029930Y002430D01*
X029928Y002374D01*
X029923Y002318D01*
X029913Y002262D01*
X029901Y002207D01*
X029884Y002154D01*
X029865Y002101D01*
X029841Y002050D01*
X029815Y002000D01*
X029785Y001952D01*
X029752Y001906D01*
X029717Y001863D01*
X029678Y001822D01*
X029637Y001783D01*
X029594Y001748D01*
X029548Y001715D01*
X029500Y001685D01*
X029450Y001659D01*
X029399Y001635D01*
X029346Y001616D01*
X029293Y001599D01*
X029238Y001587D01*
X029182Y001577D01*
X029126Y001572D01*
X029070Y001570D01*
X026830Y001570D01*
X029930Y008180D02*
X038680Y008180D01*
X042930Y008180D01*
X042998Y008178D01*
X043065Y008173D01*
X043132Y008164D01*
X043199Y008151D01*
X043264Y008134D01*
X043329Y008115D01*
X043393Y008091D01*
X043455Y008064D01*
X043516Y008034D01*
X043574Y008001D01*
X043631Y007965D01*
X043686Y007925D01*
X043739Y007883D01*
X043790Y007837D01*
X043837Y007790D01*
X043883Y007739D01*
X043925Y007686D01*
X043965Y007631D01*
X044001Y007574D01*
X044034Y007516D01*
X044064Y007455D01*
X044091Y007393D01*
X044115Y007329D01*
X044134Y007264D01*
X044151Y007199D01*
X044164Y007132D01*
X044173Y007065D01*
X044178Y006998D01*
X044180Y006930D01*
X044180Y003280D01*
X044178Y003263D01*
X044174Y003246D01*
X044167Y003230D01*
X044157Y003216D01*
X044144Y003203D01*
X044130Y003193D01*
X044114Y003186D01*
X044097Y003182D01*
X044080Y003180D01*
D38*
X047982Y005816D02*
X046253Y007544D01*
X046180Y007721D02*
X046180Y009680D01*
X046178Y009710D01*
X046173Y009740D01*
X046164Y009769D01*
X046151Y009796D01*
X046136Y009822D01*
X046117Y009846D01*
X046096Y009867D01*
X046072Y009886D01*
X046046Y009901D01*
X046019Y009914D01*
X045990Y009923D01*
X045960Y009928D01*
X045930Y009930D01*
X044930Y009930D01*
X043930Y009930D02*
X042930Y009930D01*
X041930Y009930D01*
X040930Y009930D02*
X039930Y009930D01*
X038680Y009930D02*
X038680Y008180D01*
X037680Y009930D02*
X036680Y009930D01*
X035680Y009930D01*
X034680Y009930D02*
X033680Y009930D01*
X028868Y009930D02*
X028118Y009930D01*
X027118Y009930D02*
X025930Y009930D01*
X024930Y009930D02*
X024180Y009930D01*
X018180Y014932D02*
X018180Y015618D01*
X017930Y017805D02*
X016455Y017805D01*
X016430Y017780D01*
X017930Y018805D02*
X017930Y019368D01*
X018743Y020180D01*
X021680Y020180D01*
X015680Y026305D02*
X014863Y026305D01*
X013997Y026679D02*
X012555Y026680D01*
X012555Y027743D01*
X012555Y028743D02*
X012555Y029868D01*
X013868Y031805D02*
X013868Y032680D01*
X012390Y032680D01*
X013868Y033680D02*
X013868Y034430D01*
X008555Y031618D02*
X007368Y031618D01*
X006368Y031618D02*
X005180Y031618D01*
X003993Y031618D01*
X002993Y031618D02*
X001805Y031618D01*
X001805Y032805D01*
X001805Y033805D02*
X001805Y035055D01*
X007680Y034180D02*
X007680Y037180D01*
X020906Y032430D02*
X023180Y032430D01*
X023213Y032432D01*
X023245Y032437D01*
X023277Y032445D01*
X023307Y032457D01*
X023337Y032472D01*
X023364Y032490D01*
X023389Y032510D01*
X023413Y032534D01*
X023433Y032559D01*
X023451Y032587D01*
X023466Y032616D01*
X023478Y032646D01*
X023486Y032678D01*
X023491Y032710D01*
X023493Y032743D01*
X023493Y033805D01*
X023495Y033842D01*
X023500Y033878D01*
X023509Y033914D01*
X023522Y033949D01*
X023537Y033982D01*
X023556Y034013D01*
X023578Y034043D01*
X023603Y034070D01*
X023630Y034095D01*
X023660Y034117D01*
X023691Y034136D01*
X023724Y034151D01*
X023759Y034164D01*
X023795Y034173D01*
X023831Y034178D01*
X023868Y034180D01*
X025180Y034180D01*
X024493Y033243D02*
X026868Y033243D01*
X026868Y033242D02*
X026901Y033244D01*
X026933Y033249D01*
X026965Y033257D01*
X026995Y033269D01*
X027025Y033284D01*
X027052Y033302D01*
X027077Y033322D01*
X027101Y033346D01*
X027121Y033371D01*
X027139Y033399D01*
X027154Y033428D01*
X027166Y033458D01*
X027174Y033490D01*
X027179Y033522D01*
X027181Y033555D01*
X027180Y033555D02*
X027180Y034868D01*
X027181Y034868D02*
X027179Y034901D01*
X027174Y034933D01*
X027166Y034965D01*
X027154Y034995D01*
X027139Y035025D01*
X027121Y035052D01*
X027101Y035077D01*
X027077Y035101D01*
X027052Y035121D01*
X027025Y035139D01*
X026995Y035154D01*
X026965Y035166D01*
X026933Y035174D01*
X026901Y035179D01*
X026868Y035181D01*
X026868Y035180D02*
X026180Y035180D01*
X025180Y035764D02*
X025182Y035792D01*
X025186Y035820D01*
X025194Y035847D01*
X025205Y035872D01*
X025218Y035897D01*
X025235Y035920D01*
X025253Y035941D01*
X026419Y037107D01*
X026596Y037180D02*
X028180Y037180D01*
X026596Y037180D02*
X026568Y037178D01*
X026540Y037174D01*
X026513Y037166D01*
X026488Y037155D01*
X026463Y037142D01*
X026440Y037125D01*
X026419Y037107D01*
X025180Y035764D02*
X025180Y035180D01*
X024493Y033243D02*
X024460Y033241D01*
X024428Y033236D01*
X024396Y033228D01*
X024366Y033216D01*
X024337Y033201D01*
X024309Y033183D01*
X024284Y033163D01*
X024260Y033139D01*
X024240Y033114D01*
X024222Y033087D01*
X024207Y033057D01*
X024195Y033027D01*
X024187Y032995D01*
X024182Y032963D01*
X024180Y032930D01*
X024180Y032243D01*
X024181Y032243D02*
X024179Y032210D01*
X024174Y032178D01*
X024166Y032146D01*
X024154Y032116D01*
X024139Y032087D01*
X024121Y032059D01*
X024101Y032034D01*
X024077Y032010D01*
X024052Y031990D01*
X024025Y031972D01*
X023995Y031957D01*
X023965Y031945D01*
X023933Y031937D01*
X023901Y031932D01*
X023868Y031930D01*
X020906Y031930D01*
X025180Y032243D02*
X025180Y030054D01*
X025182Y030024D01*
X025187Y029994D01*
X025196Y029965D01*
X025209Y029938D01*
X025224Y029912D01*
X025243Y029888D01*
X025264Y029867D01*
X025288Y029848D01*
X025314Y029833D01*
X025341Y029820D01*
X025370Y029811D01*
X025400Y029806D01*
X025430Y029804D01*
X025934Y029804D01*
X026801Y029430D02*
X027680Y029430D01*
X031680Y031118D02*
X031680Y031930D01*
X031680Y032743D01*
X031680Y033743D02*
X031680Y034368D01*
X031682Y034393D01*
X031686Y034417D01*
X031694Y034440D01*
X031705Y034462D01*
X031719Y034482D01*
X031735Y034501D01*
X031754Y034517D01*
X031774Y034531D01*
X031796Y034542D01*
X031819Y034550D01*
X031843Y034554D01*
X031868Y034556D01*
X031868Y034555D02*
X031899Y034553D01*
X031931Y034555D01*
X031962Y034560D01*
X031993Y034569D01*
X032022Y034581D01*
X032050Y034597D01*
X032076Y034615D01*
X032099Y034636D01*
X032121Y034660D01*
X032139Y034686D01*
X032154Y034714D01*
X032166Y034743D01*
X032175Y034773D01*
X032180Y034805D01*
X032180Y035055D01*
X032182Y035088D01*
X032187Y035120D01*
X032195Y035152D01*
X032207Y035182D01*
X032222Y035212D01*
X032240Y035239D01*
X032260Y035264D01*
X032284Y035288D01*
X032309Y035308D01*
X032337Y035326D01*
X032366Y035341D01*
X032396Y035353D01*
X032428Y035361D01*
X032460Y035366D01*
X032493Y035368D01*
X032805Y035368D01*
X032842Y035370D01*
X032878Y035375D01*
X032914Y035384D01*
X032949Y035397D01*
X032982Y035412D01*
X033013Y035431D01*
X033043Y035453D01*
X033070Y035478D01*
X033095Y035505D01*
X033117Y035535D01*
X033136Y035566D01*
X033151Y035599D01*
X033164Y035634D01*
X033173Y035670D01*
X033178Y035706D01*
X033180Y035743D01*
X033180Y036180D01*
X031753Y036753D02*
X031734Y036727D01*
X031717Y036700D01*
X031703Y036671D01*
X031692Y036641D01*
X031684Y036610D01*
X031680Y036578D01*
X031678Y036546D01*
X031679Y036514D01*
X031680Y036514D02*
X031680Y035618D01*
X031678Y035581D01*
X031673Y035545D01*
X031664Y035509D01*
X031651Y035474D01*
X031636Y035441D01*
X031617Y035410D01*
X031595Y035380D01*
X031570Y035353D01*
X031543Y035328D01*
X031513Y035306D01*
X031482Y035287D01*
X031449Y035272D01*
X031414Y035259D01*
X031378Y035250D01*
X031342Y035245D01*
X031305Y035243D01*
X030868Y035243D01*
X030831Y035241D01*
X030795Y035236D01*
X030759Y035227D01*
X030724Y035214D01*
X030691Y035199D01*
X030660Y035180D01*
X030630Y035158D01*
X030603Y035133D01*
X030578Y035106D01*
X030556Y035076D01*
X030537Y035045D01*
X030522Y035012D01*
X030509Y034977D01*
X030500Y034941D01*
X030495Y034905D01*
X030493Y034868D01*
X030493Y034243D01*
X030491Y034210D01*
X030486Y034178D01*
X030478Y034146D01*
X030466Y034116D01*
X030451Y034087D01*
X030433Y034059D01*
X030413Y034034D01*
X030389Y034010D01*
X030364Y033990D01*
X030337Y033972D01*
X030307Y033957D01*
X030277Y033945D01*
X030245Y033937D01*
X030213Y033932D01*
X030180Y033930D01*
X029180Y033930D01*
X033180Y033743D02*
X033180Y034430D01*
X033182Y034467D01*
X033187Y034503D01*
X033196Y034539D01*
X033209Y034574D01*
X033224Y034607D01*
X033243Y034638D01*
X033265Y034668D01*
X033290Y034695D01*
X033317Y034720D01*
X033347Y034742D01*
X033378Y034761D01*
X033411Y034776D01*
X033446Y034789D01*
X033482Y034798D01*
X033518Y034803D01*
X033555Y034805D01*
X036368Y034805D01*
X036405Y034807D01*
X036441Y034812D01*
X036477Y034821D01*
X036512Y034834D01*
X036545Y034849D01*
X036576Y034868D01*
X036606Y034890D01*
X036633Y034915D01*
X036658Y034942D01*
X036680Y034972D01*
X036699Y035003D01*
X036714Y035036D01*
X036727Y035071D01*
X036736Y035107D01*
X036741Y035143D01*
X036743Y035180D01*
X036743Y035930D01*
X036743Y037618D01*
X036741Y037658D01*
X036736Y037698D01*
X036726Y037738D01*
X036713Y037776D01*
X036697Y037813D01*
X036677Y037849D01*
X036655Y037882D01*
X036629Y037913D01*
X036600Y037942D01*
X036569Y037968D01*
X036536Y037990D01*
X036500Y038010D01*
X036463Y038026D01*
X036425Y038039D01*
X036385Y038049D01*
X036345Y038054D01*
X036305Y038056D01*
X036305Y038055D02*
X031618Y038055D01*
X031618Y038056D02*
X031578Y038054D01*
X031538Y038049D01*
X031498Y038039D01*
X031460Y038026D01*
X031423Y038010D01*
X031387Y037990D01*
X031354Y037968D01*
X031323Y037942D01*
X031294Y037913D01*
X031268Y037882D01*
X031246Y037849D01*
X031226Y037813D01*
X031210Y037776D01*
X031197Y037738D01*
X031187Y037698D01*
X031182Y037658D01*
X031180Y037618D01*
X031180Y037180D01*
X031753Y036753D02*
X032180Y037180D01*
X036805Y035993D02*
X039180Y035993D01*
X039224Y035995D01*
X039267Y036001D01*
X039309Y036010D01*
X039351Y036023D01*
X039391Y036040D01*
X039430Y036060D01*
X039467Y036083D01*
X039501Y036110D01*
X039534Y036139D01*
X039563Y036172D01*
X039590Y036206D01*
X039613Y036243D01*
X039633Y036282D01*
X039650Y036322D01*
X039663Y036364D01*
X039672Y036406D01*
X039678Y036449D01*
X039680Y036493D01*
X039680Y037180D01*
X042180Y037180D02*
X042180Y035555D01*
X042178Y035518D01*
X042173Y035482D01*
X042164Y035446D01*
X042151Y035411D01*
X042136Y035378D01*
X042117Y035347D01*
X042095Y035317D01*
X042070Y035290D01*
X042043Y035265D01*
X042013Y035243D01*
X041982Y035224D01*
X041949Y035209D01*
X041914Y035196D01*
X041878Y035187D01*
X041842Y035182D01*
X041805Y035180D01*
X040930Y035180D01*
X040930Y035181D02*
X040897Y035179D01*
X040865Y035174D01*
X040833Y035166D01*
X040803Y035154D01*
X040774Y035139D01*
X040746Y035121D01*
X040721Y035101D01*
X040697Y035077D01*
X040677Y035052D01*
X040659Y035025D01*
X040644Y034995D01*
X040632Y034965D01*
X040624Y034933D01*
X040619Y034901D01*
X040617Y034868D01*
X040618Y034868D02*
X040618Y031805D01*
X040614Y031768D01*
X040613Y031731D01*
X040616Y031694D01*
X040623Y031657D01*
X040633Y031621D01*
X040647Y031587D01*
X040664Y031554D01*
X040684Y031522D01*
X040707Y031493D01*
X040733Y031466D01*
X040761Y031442D01*
X040792Y031421D01*
X040824Y031402D01*
X040859Y031388D01*
X040894Y031376D01*
X040931Y031368D01*
X040930Y031368D02*
X041555Y031368D01*
X043180Y031368D01*
X041555Y031368D02*
X041555Y030679D01*
X041553Y030649D01*
X041548Y030619D01*
X041539Y030590D01*
X041526Y030563D01*
X041511Y030537D01*
X041492Y030513D01*
X041471Y030492D01*
X041447Y030473D01*
X041421Y030458D01*
X041394Y030445D01*
X041365Y030436D01*
X041335Y030431D01*
X041305Y030429D01*
X041067Y030429D01*
X041067Y029681D02*
X041304Y029681D01*
X041334Y029679D01*
X041364Y029674D01*
X041393Y029665D01*
X041421Y029652D01*
X041447Y029637D01*
X041470Y029618D01*
X041492Y029596D01*
X041511Y029573D01*
X041526Y029547D01*
X041539Y029519D01*
X041548Y029490D01*
X041553Y029460D01*
X041555Y029430D01*
X041555Y028993D01*
X041553Y028963D01*
X041548Y028933D01*
X041539Y028904D01*
X041526Y028877D01*
X041511Y028851D01*
X041492Y028827D01*
X041471Y028806D01*
X041447Y028787D01*
X041421Y028772D01*
X041394Y028759D01*
X041365Y028750D01*
X041335Y028745D01*
X041305Y028743D01*
X040555Y028743D01*
X038868Y028743D01*
X038838Y028745D01*
X038808Y028750D01*
X038779Y028759D01*
X038752Y028772D01*
X038726Y028787D01*
X038702Y028806D01*
X038681Y028827D01*
X038662Y028851D01*
X038647Y028877D01*
X038634Y028904D01*
X038625Y028933D01*
X038620Y028963D01*
X038618Y028993D01*
X038618Y030430D01*
X040043Y030429D01*
X038618Y030430D02*
X038618Y031243D01*
X038618Y031680D01*
X038620Y031710D01*
X038625Y031740D01*
X038634Y031769D01*
X038647Y031796D01*
X038662Y031822D01*
X038681Y031846D01*
X038702Y031867D01*
X038726Y031886D01*
X038752Y031901D01*
X038779Y031914D01*
X038808Y031923D01*
X038838Y031928D01*
X038868Y031930D01*
X039345Y031930D01*
X035555Y030470D02*
X035555Y029743D01*
X033180Y031118D02*
X033180Y031930D01*
X033180Y032743D01*
X036742Y035930D02*
X036744Y035944D01*
X036748Y035957D01*
X036756Y035969D01*
X036766Y035979D01*
X036778Y035987D01*
X036791Y035991D01*
X036805Y035993D01*
X047306Y030418D02*
X047243Y029680D01*
X048118Y029680D02*
X048054Y030418D01*
X049430Y029430D02*
X049430Y031451D01*
X049503Y031628D02*
X052107Y034232D01*
X052180Y034409D02*
X052180Y037180D01*
X052180Y034409D02*
X052178Y034381D01*
X052174Y034353D01*
X052166Y034326D01*
X052155Y034301D01*
X052142Y034276D01*
X052125Y034253D01*
X052107Y034232D01*
X051930Y031680D02*
X051931Y031675D01*
X051935Y031671D01*
X051940Y031670D01*
X057180Y031670D01*
X049503Y031628D02*
X049485Y031607D01*
X049468Y031584D01*
X049455Y031559D01*
X049444Y031534D01*
X049436Y031507D01*
X049432Y031479D01*
X049430Y031451D01*
X049430Y028430D02*
X049430Y027680D01*
X049430Y026930D01*
X049430Y025930D02*
X049430Y025118D01*
X050180Y024430D02*
X050180Y020680D01*
X050180Y019680D02*
X050180Y016680D01*
X050182Y016650D01*
X050187Y016620D01*
X050196Y016591D01*
X050209Y016564D01*
X050224Y016538D01*
X050243Y016514D01*
X050264Y016493D01*
X050288Y016474D01*
X050314Y016459D01*
X050341Y016446D01*
X050370Y016437D01*
X050400Y016432D01*
X050430Y016430D01*
X050930Y016430D01*
X051930Y016430D02*
X052805Y016430D01*
X052842Y016428D01*
X052878Y016423D01*
X052914Y016414D01*
X052949Y016401D01*
X052982Y016386D01*
X053013Y016367D01*
X053043Y016345D01*
X053070Y016320D01*
X053095Y016293D01*
X053117Y016263D01*
X053136Y016232D01*
X053151Y016199D01*
X053164Y016164D01*
X053173Y016128D01*
X053178Y016092D01*
X053180Y016055D01*
X053180Y008555D01*
X053181Y008555D02*
X053176Y008519D01*
X053175Y008483D01*
X053178Y008447D01*
X053185Y008411D01*
X053195Y008376D01*
X053209Y008342D01*
X053227Y008310D01*
X053247Y008280D01*
X053271Y008253D01*
X053298Y008228D01*
X053327Y008206D01*
X053358Y008187D01*
X053391Y008171D01*
X053425Y008159D01*
X053461Y008151D01*
X053460Y008150D02*
X056180Y008150D01*
X051930Y008180D02*
X051930Y007461D01*
X051928Y007430D01*
X051923Y007398D01*
X051914Y007368D01*
X051902Y007339D01*
X051887Y007311D01*
X051869Y007286D01*
X051848Y007262D01*
X051824Y007241D01*
X051799Y007223D01*
X051771Y007208D01*
X051742Y007196D01*
X051712Y007187D01*
X051680Y007182D01*
X051649Y007180D01*
X049868Y007180D01*
X049835Y007182D01*
X049803Y007187D01*
X049771Y007195D01*
X049741Y007207D01*
X049712Y007222D01*
X049684Y007240D01*
X049659Y007260D01*
X049635Y007284D01*
X049615Y007309D01*
X049597Y007337D01*
X049582Y007366D01*
X049570Y007396D01*
X049562Y007428D01*
X049557Y007460D01*
X049555Y007493D01*
X049555Y008180D01*
X047993Y008180D01*
X047960Y008182D01*
X047928Y008187D01*
X047896Y008195D01*
X047866Y008207D01*
X047837Y008222D01*
X047809Y008240D01*
X047784Y008260D01*
X047760Y008284D01*
X047740Y008309D01*
X047722Y008337D01*
X047707Y008366D01*
X047695Y008396D01*
X047687Y008428D01*
X047682Y008460D01*
X047680Y008493D01*
X047680Y012118D01*
X047678Y012155D01*
X047673Y012191D01*
X047664Y012227D01*
X047651Y012262D01*
X047636Y012295D01*
X047617Y012326D01*
X047595Y012356D01*
X047570Y012383D01*
X047543Y012408D01*
X047513Y012430D01*
X047482Y012449D01*
X047449Y012464D01*
X047414Y012477D01*
X047378Y012486D01*
X047342Y012491D01*
X047305Y012493D01*
X046140Y012493D01*
X046140Y012993D02*
X048055Y012993D01*
X048092Y012991D01*
X048128Y012986D01*
X048164Y012977D01*
X048199Y012964D01*
X048232Y012949D01*
X048263Y012930D01*
X048293Y012908D01*
X048320Y012883D01*
X048345Y012856D01*
X048367Y012826D01*
X048386Y012795D01*
X048401Y012762D01*
X048414Y012727D01*
X048423Y012691D01*
X048428Y012655D01*
X048430Y012618D01*
X048430Y009493D01*
X048432Y009460D01*
X048437Y009428D01*
X048445Y009396D01*
X048457Y009366D01*
X048472Y009337D01*
X048490Y009309D01*
X048510Y009284D01*
X048534Y009260D01*
X048559Y009240D01*
X048587Y009222D01*
X048616Y009207D01*
X048646Y009195D01*
X048678Y009187D01*
X048710Y009182D01*
X048743Y009180D01*
X049555Y009180D01*
X050930Y009180D01*
X051330Y005743D02*
X048159Y005743D01*
X048159Y005742D02*
X048131Y005744D01*
X048103Y005748D01*
X048076Y005756D01*
X048051Y005767D01*
X048026Y005780D01*
X048003Y005797D01*
X047982Y005815D01*
X046253Y007544D02*
X046235Y007565D01*
X046218Y007588D01*
X046205Y007613D01*
X046194Y007638D01*
X046186Y007665D01*
X046182Y007693D01*
X046180Y007721D01*
X051330Y005743D02*
X051360Y005741D01*
X051390Y005736D01*
X051419Y005727D01*
X051446Y005714D01*
X051472Y005699D01*
X051496Y005680D01*
X051517Y005659D01*
X051536Y005635D01*
X051551Y005609D01*
X051564Y005582D01*
X051573Y005553D01*
X051578Y005523D01*
X051580Y005493D01*
X051580Y003180D01*
X043720Y012493D02*
X042868Y012493D01*
X042618Y012743D02*
X042620Y012773D01*
X042625Y012803D01*
X042634Y012832D01*
X042647Y012859D01*
X042662Y012885D01*
X042681Y012909D01*
X042702Y012930D01*
X042726Y012949D01*
X042752Y012964D01*
X042779Y012977D01*
X042808Y012986D01*
X042838Y012991D01*
X042868Y012993D01*
X043720Y012993D01*
X042868Y012493D02*
X042838Y012495D01*
X042808Y012500D01*
X042779Y012509D01*
X042752Y012522D01*
X042726Y012537D01*
X042702Y012556D01*
X042681Y012577D01*
X042662Y012601D01*
X042647Y012627D01*
X042634Y012654D01*
X042625Y012683D01*
X042620Y012713D01*
X042618Y012743D01*
X041442Y012743D01*
X043930Y015930D02*
X045220Y015930D01*
X045220Y016930D02*
X043930Y016930D01*
X042930Y016930D01*
X040430Y016805D02*
X040430Y018868D01*
X040428Y018898D01*
X040423Y018928D01*
X040414Y018957D01*
X040401Y018984D01*
X040386Y019010D01*
X040367Y019034D01*
X040346Y019055D01*
X040322Y019074D01*
X040296Y019089D01*
X040269Y019102D01*
X040240Y019111D01*
X040210Y019116D01*
X040180Y019118D01*
X039430Y019118D01*
X039430Y018118D02*
X039430Y016805D01*
X050180Y024430D02*
X050182Y024460D01*
X050187Y024490D01*
X050196Y024519D01*
X050209Y024546D01*
X050224Y024572D01*
X050243Y024596D01*
X050264Y024617D01*
X050288Y024636D01*
X050314Y024651D01*
X050341Y024664D01*
X050370Y024673D01*
X050400Y024678D01*
X050430Y024680D01*
X050930Y024680D01*
X051930Y024680D02*
X056180Y024650D01*
X054305Y019430D02*
X051930Y019430D01*
X054305Y019430D02*
X054342Y019428D01*
X054378Y019423D01*
X054414Y019414D01*
X054449Y019401D01*
X054482Y019386D01*
X054513Y019367D01*
X054543Y019345D01*
X054570Y019320D01*
X054595Y019293D01*
X054617Y019263D01*
X054636Y019232D01*
X054651Y019199D01*
X054664Y019164D01*
X054673Y019128D01*
X054678Y019092D01*
X054680Y019055D01*
X054680Y015555D01*
X054682Y015517D01*
X054687Y015480D01*
X054697Y015443D01*
X054709Y015408D01*
X054725Y015374D01*
X054745Y015341D01*
X054767Y015311D01*
X054793Y015283D01*
X054821Y015257D01*
X054851Y015235D01*
X054884Y015215D01*
X054918Y015199D01*
X054953Y015187D01*
X054990Y015177D01*
X055027Y015172D01*
X055065Y015170D01*
X057180Y015170D01*
D39*
X011430Y016430D02*
X000930Y016430D01*
X000930Y030430D01*
X011430Y030430D01*
X011430Y016430D01*
X011430Y016508D02*
X000930Y016508D01*
X000930Y016587D02*
X011430Y016587D01*
X011430Y016665D02*
X000930Y016665D01*
X000930Y016744D02*
X011430Y016744D01*
X011430Y016822D02*
X000930Y016822D01*
X000930Y016901D02*
X011430Y016901D01*
X011430Y016979D02*
X000930Y016979D01*
X000930Y017058D02*
X011430Y017058D01*
X011430Y017136D02*
X000930Y017136D01*
X000930Y017215D02*
X011430Y017215D01*
X011430Y017293D02*
X000930Y017293D01*
X000930Y017372D02*
X011430Y017372D01*
X011430Y017450D02*
X000930Y017450D01*
X000930Y017529D02*
X011430Y017529D01*
X011430Y017607D02*
X000930Y017607D01*
X000930Y017686D02*
X011430Y017686D01*
X011430Y017764D02*
X000930Y017764D01*
X000930Y017843D02*
X011430Y017843D01*
X011430Y017921D02*
X000930Y017921D01*
X000930Y018000D02*
X011430Y018000D01*
X011430Y018078D02*
X000930Y018078D01*
X000930Y018157D02*
X011430Y018157D01*
X011430Y018235D02*
X000930Y018235D01*
X000930Y018314D02*
X011430Y018314D01*
X011430Y018392D02*
X000930Y018392D01*
X000930Y018471D02*
X011430Y018471D01*
X011430Y018549D02*
X000930Y018549D01*
X000930Y018628D02*
X011430Y018628D01*
X011430Y018706D02*
X000930Y018706D01*
X000930Y018785D02*
X011430Y018785D01*
X011430Y018863D02*
X000930Y018863D01*
X000930Y018942D02*
X011430Y018942D01*
X011430Y019020D02*
X000930Y019020D01*
X000930Y019099D02*
X011430Y019099D01*
X011430Y019177D02*
X000930Y019177D01*
X000930Y019256D02*
X011430Y019256D01*
X011430Y019334D02*
X000930Y019334D01*
X000930Y019413D02*
X011430Y019413D01*
X011430Y019491D02*
X000930Y019491D01*
X000930Y019570D02*
X011430Y019570D01*
X011430Y019648D02*
X000930Y019648D01*
X000930Y019727D02*
X011430Y019727D01*
X011430Y019805D02*
X000930Y019805D01*
X000930Y019884D02*
X011430Y019884D01*
X011430Y019962D02*
X000930Y019962D01*
X000930Y020041D02*
X011430Y020041D01*
X011430Y020119D02*
X000930Y020119D01*
X000930Y020198D02*
X011430Y020198D01*
X011430Y020276D02*
X000930Y020276D01*
X000930Y020355D02*
X011430Y020355D01*
X011430Y020433D02*
X000930Y020433D01*
X000930Y020512D02*
X011430Y020512D01*
X011430Y020590D02*
X000930Y020590D01*
X000930Y020669D02*
X011430Y020669D01*
X011430Y020747D02*
X000930Y020747D01*
X000930Y020826D02*
X011430Y020826D01*
X011430Y020904D02*
X000930Y020904D01*
X000930Y020983D02*
X011430Y020983D01*
X011430Y021061D02*
X000930Y021061D01*
X000930Y021140D02*
X011430Y021140D01*
X011430Y021218D02*
X000930Y021218D01*
X000930Y021297D02*
X011430Y021297D01*
X011430Y021375D02*
X000930Y021375D01*
X000930Y021454D02*
X011430Y021454D01*
X011430Y021532D02*
X000930Y021532D01*
X000930Y021611D02*
X011430Y021611D01*
X011430Y021689D02*
X000930Y021689D01*
X000930Y021768D02*
X011430Y021768D01*
X011430Y021846D02*
X000930Y021846D01*
X000930Y021925D02*
X011430Y021925D01*
X011430Y022003D02*
X000930Y022003D01*
X000930Y022082D02*
X011430Y022082D01*
X011430Y022160D02*
X000930Y022160D01*
X000930Y022239D02*
X011430Y022239D01*
X011430Y022317D02*
X000930Y022317D01*
X000930Y022396D02*
X011430Y022396D01*
X011430Y022474D02*
X000930Y022474D01*
X000930Y022553D02*
X011430Y022553D01*
X011430Y022631D02*
X000930Y022631D01*
X000930Y022710D02*
X011430Y022710D01*
X011430Y022788D02*
X000930Y022788D01*
X000930Y022867D02*
X011430Y022867D01*
X011430Y022945D02*
X000930Y022945D01*
X000930Y023024D02*
X011430Y023024D01*
X011430Y023102D02*
X000930Y023102D01*
X000930Y023181D02*
X011430Y023181D01*
X011430Y023259D02*
X000930Y023259D01*
X000930Y023338D02*
X011430Y023338D01*
X011430Y023416D02*
X000930Y023416D01*
X000930Y023495D02*
X011430Y023495D01*
X011430Y023573D02*
X000930Y023573D01*
X000930Y023652D02*
X011430Y023652D01*
X011430Y023730D02*
X000930Y023730D01*
X000930Y023809D02*
X011430Y023809D01*
X011430Y023887D02*
X000930Y023887D01*
X000930Y023966D02*
X011430Y023966D01*
X011430Y024044D02*
X000930Y024044D01*
X000930Y024123D02*
X011430Y024123D01*
X011430Y024201D02*
X000930Y024201D01*
X000930Y024280D02*
X011430Y024280D01*
X011430Y024358D02*
X000930Y024358D01*
X000930Y024437D02*
X011430Y024437D01*
X011430Y024515D02*
X000930Y024515D01*
X000930Y024594D02*
X011430Y024594D01*
X011430Y024672D02*
X000930Y024672D01*
X000930Y024751D02*
X011430Y024751D01*
X011430Y024829D02*
X000930Y024829D01*
X000930Y024908D02*
X011430Y024908D01*
X011430Y024986D02*
X000930Y024986D01*
X000930Y025065D02*
X011430Y025065D01*
X011430Y025143D02*
X000930Y025143D01*
X000930Y025222D02*
X011430Y025222D01*
X011430Y025300D02*
X000930Y025300D01*
X000930Y025379D02*
X011430Y025379D01*
X011430Y025457D02*
X000930Y025457D01*
X000930Y025536D02*
X011430Y025536D01*
X011430Y025614D02*
X000930Y025614D01*
X000930Y025693D02*
X011430Y025693D01*
X011430Y025771D02*
X000930Y025771D01*
X000930Y025850D02*
X011430Y025850D01*
X011430Y025928D02*
X000930Y025928D01*
X000930Y026007D02*
X011430Y026007D01*
X011430Y026085D02*
X000930Y026085D01*
X000930Y026164D02*
X011430Y026164D01*
X011430Y026242D02*
X000930Y026242D01*
X000930Y026321D02*
X011430Y026321D01*
X011430Y026399D02*
X000930Y026399D01*
X000930Y026478D02*
X011430Y026478D01*
X011430Y026556D02*
X000930Y026556D01*
X000930Y026635D02*
X011430Y026635D01*
X011430Y026713D02*
X000930Y026713D01*
X000930Y026792D02*
X011430Y026792D01*
X011430Y026870D02*
X000930Y026870D01*
X000930Y026949D02*
X011430Y026949D01*
X011430Y027027D02*
X000930Y027027D01*
X000930Y027106D02*
X011430Y027106D01*
X011430Y027184D02*
X000930Y027184D01*
X000930Y027263D02*
X011430Y027263D01*
X011430Y027341D02*
X000930Y027341D01*
X000930Y027420D02*
X011430Y027420D01*
X011430Y027498D02*
X000930Y027498D01*
X000930Y027577D02*
X011430Y027577D01*
X011430Y027655D02*
X000930Y027655D01*
X000930Y027734D02*
X011430Y027734D01*
X011430Y027812D02*
X000930Y027812D01*
X000930Y027891D02*
X011430Y027891D01*
X011430Y027969D02*
X000930Y027969D01*
X000930Y028048D02*
X011430Y028048D01*
X011430Y028126D02*
X000930Y028126D01*
X000930Y028205D02*
X011430Y028205D01*
X011430Y028283D02*
X000930Y028283D01*
X000930Y028362D02*
X011430Y028362D01*
X011430Y028440D02*
X000930Y028440D01*
X000930Y028519D02*
X011430Y028519D01*
X011430Y028597D02*
X000930Y028597D01*
X000930Y028676D02*
X011430Y028676D01*
X011430Y028754D02*
X000930Y028754D01*
X000930Y028833D02*
X011430Y028833D01*
X011430Y028911D02*
X000930Y028911D01*
X000930Y028990D02*
X011430Y028990D01*
X011430Y029068D02*
X000930Y029068D01*
X000930Y029147D02*
X011430Y029147D01*
X011430Y029225D02*
X000930Y029225D01*
X000930Y029304D02*
X011430Y029304D01*
X011430Y029382D02*
X000930Y029382D01*
X000930Y029461D02*
X011430Y029461D01*
X011430Y029539D02*
X000930Y029539D01*
X000930Y029618D02*
X011430Y029618D01*
X011430Y029696D02*
X000930Y029696D01*
X000930Y029775D02*
X011430Y029775D01*
X011430Y029853D02*
X000930Y029853D01*
X000930Y029932D02*
X011430Y029932D01*
X011430Y030010D02*
X000930Y030010D01*
X000930Y030089D02*
X011430Y030089D01*
X011430Y030167D02*
X000930Y030167D01*
X000930Y030246D02*
X011430Y030246D01*
X011430Y030324D02*
X000930Y030324D01*
X000930Y030403D02*
X011430Y030403D01*
D40*
X007680Y023430D03*
D41*
X014930Y022430D03*
X015180Y023430D03*
X014930Y024430D03*
D42*
X013960Y024430D01*
X013930Y024430D01*
X013960Y023430D02*
X010680Y023430D01*
X007680Y023430D02*
X015180Y023430D01*
X014930Y022430D02*
X013930Y022430D01*
X013960Y022430D02*
X013960Y022180D01*
X013960Y021460D01*
X012440Y019940D01*
X012440Y016180D01*
X012440Y015940D01*
X012430Y016180D02*
X012437Y016133D01*
X012441Y016085D01*
X012442Y016038D01*
X012439Y015990D01*
X012432Y015943D01*
X012422Y015897D01*
X012408Y015851D01*
X012391Y015806D01*
X012371Y015763D01*
X012348Y015722D01*
X012321Y015682D01*
X012292Y015645D01*
X012260Y015609D01*
X012226Y015577D01*
X012189Y015546D01*
X012149Y015519D01*
X012108Y015495D01*
X012066Y015474D01*
X012022Y015456D01*
X011976Y015441D01*
X011930Y015430D01*
X007430Y015430D01*
X007931Y015206D02*
X007969Y015192D01*
X008009Y015181D01*
X008050Y015175D01*
X008091Y015171D01*
X008132Y015172D01*
X008173Y015175D01*
X008214Y015183D01*
X008253Y015194D01*
X008292Y015208D01*
X008329Y015226D01*
X008364Y015247D01*
X008398Y015271D01*
X008429Y015297D01*
X008458Y015327D01*
X008485Y015358D01*
X008508Y015392D01*
X008528Y015428D01*
X008545Y015466D01*
X008545Y015465D02*
X002280Y015465D01*
X002281Y015465D02*
X002236Y015458D01*
X002192Y015448D01*
X002149Y015433D01*
X002108Y015416D01*
X002068Y015395D01*
X002030Y015370D01*
X001994Y015343D01*
X001961Y015313D01*
X001930Y015280D01*
X001902Y015244D01*
X001877Y015207D01*
X001855Y015167D01*
X001836Y015126D01*
X001821Y015084D01*
X001810Y015040D01*
X001802Y014996D01*
X001798Y014951D01*
X001797Y014906D01*
X001801Y014861D01*
X001800Y014860D02*
X001800Y014310D01*
X007993Y011492D02*
X007991Y011411D01*
X007986Y011331D01*
X007977Y011250D01*
X007964Y011170D01*
X007948Y011091D01*
X007928Y011013D01*
X007904Y010936D01*
X007878Y010859D01*
X007847Y010784D01*
X007814Y010711D01*
X007777Y010639D01*
X007737Y010569D01*
X007694Y010501D01*
X007647Y010434D01*
X007598Y010370D01*
X007546Y010308D01*
X007491Y010249D01*
X007434Y010192D01*
X007374Y010138D01*
X007312Y010086D01*
X007247Y010038D01*
X007180Y009992D01*
X007993Y011493D02*
X007993Y012405D01*
X007930Y012405D01*
X010430Y012405D01*
X014940Y022340D02*
X014938Y022348D01*
X014934Y022354D01*
X014928Y022358D01*
X014920Y022360D01*
D43*
X030321Y019670D02*
X030357Y019856D01*
X030391Y020043D01*
X030421Y020230D01*
X030320Y020650D02*
X030278Y020648D01*
X030237Y020642D01*
X030196Y020632D01*
X030157Y020618D01*
X030119Y020601D01*
X030083Y020580D01*
X030049Y020556D01*
X030017Y020528D01*
X029988Y020498D01*
X029963Y020465D01*
X029940Y020430D01*
X030320Y020650D02*
X031278Y020652D01*
X034250Y020660D01*
X034275Y020657D01*
X034299Y020658D01*
X034323Y020664D01*
X034345Y020673D01*
X034366Y020685D01*
X034385Y020701D01*
X034401Y020719D01*
X034414Y020740D01*
X034423Y020762D01*
X034429Y020786D01*
X034431Y020810D01*
X034430Y020810D02*
X034430Y020930D01*
X035180Y021680D01*
X036680Y021680D01*
X035680Y021180D02*
X035180Y021180D01*
X034680Y020680D01*
X034680Y020610D01*
X034678Y020591D01*
X034673Y020572D01*
X034665Y020555D01*
X034654Y020539D01*
X034641Y020526D01*
X034625Y020515D01*
X034608Y020507D01*
X034589Y020502D01*
X034570Y020500D01*
X034530Y020500D01*
X031278Y020495D01*
X030720Y020490D01*
X030687Y020488D01*
X030654Y020482D01*
X030623Y020473D01*
X030592Y020460D01*
X030563Y020445D01*
X030535Y020426D01*
X030510Y020404D01*
X030488Y020380D01*
X030468Y020353D01*
X030451Y020324D01*
X030438Y020294D01*
X030427Y020263D01*
X030421Y020230D01*
X028739Y022170D02*
X028664Y022103D01*
X028590Y022033D01*
X028519Y021960D01*
X029780Y021560D02*
X029778Y021490D01*
X029772Y021420D01*
X029763Y021351D01*
X029750Y021282D01*
X029734Y021214D01*
X029714Y021146D01*
X029690Y021080D01*
X030450Y021530D02*
X030444Y021587D01*
X030435Y021643D01*
X030424Y021698D01*
X030409Y021753D01*
X030391Y021807D01*
X030370Y021860D01*
X030353Y021895D01*
X030333Y021929D01*
X030310Y021960D01*
X030284Y021989D01*
X030255Y022015D01*
X030224Y022039D01*
X030191Y022059D01*
X030156Y022076D01*
X030120Y022090D01*
X030092Y022101D01*
X030066Y022115D01*
X030041Y022132D01*
X030019Y022152D01*
X029999Y022174D01*
X029981Y022198D01*
X029967Y022224D01*
X029955Y022252D01*
X029947Y022281D01*
X029942Y022310D01*
X029940Y022340D01*
X029940Y022778D01*
X029940Y022779D01*
X029945Y022779D01*
X029940Y024480D01*
X029942Y024506D01*
X029947Y024532D01*
X029955Y024557D01*
X029967Y024580D01*
X029981Y024602D01*
X029999Y024621D01*
X030018Y024639D01*
X030040Y024653D01*
X030063Y024665D01*
X030088Y024673D01*
X030114Y024678D01*
X030140Y024680D01*
X030680Y024680D01*
X032680Y026680D01*
X032680Y027180D01*
X032180Y026680D02*
X030430Y024930D01*
X029960Y024930D01*
X029820Y025180D02*
X029795Y025178D01*
X029771Y025174D01*
X029747Y025166D01*
X029725Y025155D01*
X029704Y025141D01*
X029686Y025124D01*
X029669Y025106D01*
X029655Y025085D01*
X029644Y025063D01*
X029636Y025039D01*
X029632Y025015D01*
X029630Y024990D01*
X029630Y022784D01*
X029782Y022778D02*
X029785Y022778D01*
X029790Y024760D01*
X029792Y024784D01*
X029797Y024808D01*
X029805Y024831D01*
X029817Y024852D01*
X029832Y024871D01*
X029849Y024888D01*
X029868Y024903D01*
X029889Y024915D01*
X029912Y024923D01*
X029936Y024928D01*
X029960Y024930D01*
X029820Y025180D02*
X030180Y025180D01*
X031680Y026680D01*
X031680Y027180D01*
X032180Y026680D02*
X032180Y028180D01*
X033180Y028180D02*
X033180Y026680D01*
X030930Y024430D01*
X030270Y024430D01*
X030246Y024428D01*
X030222Y024423D01*
X030199Y024415D01*
X030178Y024403D01*
X030159Y024388D01*
X030142Y024371D01*
X030127Y024352D01*
X030115Y024331D01*
X030107Y024308D01*
X030102Y024284D01*
X030100Y024260D01*
X030100Y022781D01*
X030255Y022778D02*
X030260Y024030D01*
X030262Y024053D01*
X030267Y024076D01*
X030276Y024098D01*
X030289Y024118D01*
X030304Y024136D01*
X030322Y024151D01*
X030342Y024164D01*
X030364Y024173D01*
X030387Y024178D01*
X030410Y024180D01*
X031180Y024180D01*
X033680Y026680D01*
X033680Y027180D01*
X034180Y026680D02*
X031430Y023930D01*
X030580Y023930D01*
X030556Y023928D01*
X030532Y023923D01*
X030509Y023915D01*
X030488Y023903D01*
X030469Y023888D01*
X030452Y023871D01*
X030437Y023852D01*
X030425Y023831D01*
X030417Y023808D01*
X030412Y023784D01*
X030410Y023760D01*
X030410Y022781D01*
X030570Y022779D02*
X030570Y023530D01*
X030572Y023553D01*
X030577Y023576D01*
X030586Y023598D01*
X030599Y023618D01*
X030614Y023636D01*
X030632Y023651D01*
X030652Y023664D01*
X030674Y023673D01*
X030697Y023678D01*
X030720Y023680D01*
X031680Y023680D01*
X034680Y026680D01*
X034680Y027180D01*
X034180Y026680D02*
X034180Y028180D01*
X028060Y018251D02*
X027895Y018339D01*
X027730Y018431D01*
X028500Y018230D02*
X028527Y018259D01*
X028552Y018290D01*
X028574Y018323D01*
X028593Y018358D01*
X028608Y018394D01*
X028621Y018432D01*
X028630Y018470D01*
X028500Y018230D02*
X028474Y018203D01*
X028451Y018174D01*
X028431Y018143D01*
X028413Y018110D01*
X028398Y018076D01*
X028386Y018040D01*
X028378Y018004D01*
X028372Y017967D01*
X028370Y017930D01*
X028365Y017582D01*
X028360Y014310D01*
X028358Y014290D01*
X028354Y014270D01*
X028346Y014251D01*
X028335Y014234D01*
X028322Y014218D01*
X028306Y014205D01*
X028289Y014194D01*
X028270Y014186D01*
X028250Y014182D01*
X028230Y014180D01*
X028180Y014180D01*
X027680Y013680D01*
X027680Y013180D01*
X027180Y013670D02*
X027940Y014430D01*
X028030Y014430D01*
X028054Y014432D01*
X028078Y014437D01*
X028101Y014445D01*
X028122Y014457D01*
X028141Y014472D01*
X028158Y014489D01*
X028173Y014508D01*
X028185Y014529D01*
X028193Y014552D01*
X028198Y014576D01*
X028200Y014600D01*
X028200Y014620D01*
X028204Y014621D01*
X028207Y014624D01*
X028208Y014628D01*
X028208Y017582D01*
X028210Y018000D01*
X028208Y018031D01*
X028204Y018061D01*
X028196Y018091D01*
X028184Y018119D01*
X028170Y018147D01*
X028153Y018172D01*
X028133Y018195D01*
X028111Y018216D01*
X028086Y018235D01*
X028060Y018251D01*
X028050Y017581D02*
X028050Y014840D01*
X028048Y014817D01*
X028044Y014795D01*
X028036Y014774D01*
X028025Y014753D01*
X028011Y014735D01*
X027995Y014719D01*
X027977Y014705D01*
X027956Y014694D01*
X027935Y014686D01*
X027913Y014682D01*
X027890Y014680D01*
X027670Y014680D01*
X026680Y013690D01*
X026680Y013180D01*
X027180Y013670D02*
X027180Y012180D01*
X028180Y012180D02*
X028180Y013680D01*
X028520Y014020D01*
X028520Y014410D01*
X028523Y014413D01*
X028523Y017582D01*
X028680Y017582D02*
X028680Y013180D01*
X029200Y013680D02*
X028840Y014050D01*
X028837Y017582D01*
X028995Y017582D02*
X029000Y014330D01*
X029000Y014290D01*
X029002Y014271D01*
X029007Y014252D01*
X029015Y014235D01*
X029026Y014219D01*
X029039Y014206D01*
X029055Y014195D01*
X029072Y014187D01*
X029091Y014182D01*
X029110Y014180D01*
X029180Y014180D01*
X029680Y013680D01*
X029680Y013180D01*
X029200Y013680D02*
X029180Y012180D01*
X030180Y012180D02*
X030180Y013680D01*
X029430Y014430D01*
X029310Y014430D01*
X029310Y014429D02*
X029286Y014431D01*
X029262Y014437D01*
X029240Y014446D01*
X029219Y014459D01*
X029201Y014475D01*
X029185Y014494D01*
X029173Y014515D01*
X029164Y014537D01*
X029158Y014561D01*
X029157Y014585D01*
X029160Y014610D01*
X029152Y017582D01*
X029310Y017582D02*
X029310Y014870D01*
X029312Y014845D01*
X029316Y014821D01*
X029324Y014797D01*
X029335Y014775D01*
X029349Y014754D01*
X029366Y014736D01*
X029384Y014719D01*
X029405Y014705D01*
X029427Y014694D01*
X029451Y014686D01*
X029475Y014682D01*
X029500Y014680D01*
X029680Y014680D01*
X030680Y013680D01*
X030680Y013180D01*
X031180Y013680D02*
X029930Y014930D01*
X029660Y014930D01*
X029635Y014932D01*
X029611Y014936D01*
X029587Y014944D01*
X029565Y014955D01*
X029544Y014969D01*
X029526Y014986D01*
X029509Y015004D01*
X029495Y015025D01*
X029484Y015047D01*
X029476Y015071D01*
X029472Y015095D01*
X029470Y015120D01*
X029467Y017582D01*
X029625Y017582D02*
X029630Y015380D01*
X029632Y015354D01*
X029637Y015328D01*
X029645Y015303D01*
X029657Y015280D01*
X029671Y015258D01*
X029689Y015239D01*
X029708Y015221D01*
X029730Y015207D01*
X029753Y015195D01*
X029778Y015187D01*
X029804Y015182D01*
X029830Y015180D01*
X030180Y015180D01*
X031680Y013680D01*
X031680Y013180D01*
X031180Y013680D02*
X031180Y012180D01*
X032180Y012180D02*
X032180Y013680D01*
X030430Y015430D01*
X029970Y015430D01*
X029944Y015431D01*
X029918Y015436D01*
X029893Y015445D01*
X029869Y015457D01*
X029848Y015472D01*
X029829Y015490D01*
X029812Y015511D01*
X029799Y015534D01*
X029789Y015558D01*
X029783Y015584D01*
X029780Y015610D01*
X029782Y017582D01*
X029940Y017581D02*
X029940Y015850D01*
X029942Y015826D01*
X029947Y015802D01*
X029955Y015779D01*
X029967Y015758D01*
X029982Y015739D01*
X029999Y015722D01*
X030018Y015707D01*
X030039Y015695D01*
X030062Y015687D01*
X030086Y015682D01*
X030110Y015680D01*
X030680Y015680D01*
X032680Y013680D01*
X032680Y013180D01*
X033180Y013680D02*
X030930Y015930D01*
X030290Y015930D01*
X030265Y015932D01*
X030241Y015936D01*
X030217Y015944D01*
X030195Y015955D01*
X030174Y015969D01*
X030156Y015986D01*
X030139Y016004D01*
X030125Y016025D01*
X030114Y016047D01*
X030106Y016071D01*
X030102Y016095D01*
X030100Y016120D01*
X030100Y017579D01*
X030260Y017576D02*
X030260Y016390D01*
X030262Y016363D01*
X030267Y016336D01*
X030276Y016310D01*
X030288Y016285D01*
X030303Y016262D01*
X030322Y016242D01*
X030342Y016223D01*
X030365Y016208D01*
X030390Y016196D01*
X030416Y016187D01*
X030443Y016182D01*
X030470Y016180D01*
X031180Y016180D01*
X033680Y013680D01*
X033680Y013180D01*
X033180Y013680D02*
X033180Y012180D01*
X034180Y012180D02*
X034180Y013680D01*
X031430Y016430D01*
X030670Y016430D01*
X030640Y016432D01*
X030610Y016437D01*
X030581Y016446D01*
X030554Y016459D01*
X030528Y016474D01*
X030504Y016493D01*
X030483Y016514D01*
X030464Y016538D01*
X030449Y016564D01*
X030436Y016591D01*
X030427Y016620D01*
X030422Y016650D01*
X030420Y016680D01*
X030420Y017574D01*
X030570Y017581D02*
X030570Y017000D01*
X030572Y016967D01*
X030577Y016933D01*
X030586Y016901D01*
X030598Y016870D01*
X030613Y016840D01*
X030631Y016812D01*
X030652Y016786D01*
X030676Y016762D01*
X030702Y016741D01*
X030730Y016723D01*
X030760Y016708D01*
X030791Y016696D01*
X030823Y016687D01*
X030857Y016682D01*
X030890Y016680D01*
X031680Y016680D01*
X034680Y013680D01*
X034680Y013180D01*
X027330Y022240D02*
X027118Y022078D01*
X026910Y021910D01*
X027330Y022240D02*
X027350Y022257D01*
X027368Y022276D01*
X027383Y022297D01*
X027396Y022319D01*
X027407Y022343D01*
X027414Y022368D01*
X027418Y022394D01*
X027420Y022420D01*
X027420Y022778D01*
X027420Y022778D01*
X027420Y024510D01*
X027418Y024534D01*
X027413Y024558D01*
X027405Y024581D01*
X027393Y024602D01*
X027378Y024621D01*
X027361Y024638D01*
X027342Y024653D01*
X027321Y024665D01*
X027298Y024673D01*
X027274Y024678D01*
X027250Y024680D01*
X026680Y024680D01*
X024680Y026680D01*
X024680Y027180D01*
X024180Y026680D02*
X026430Y024430D01*
X027070Y024430D01*
X027095Y024428D01*
X027119Y024424D01*
X027143Y024416D01*
X027165Y024405D01*
X027186Y024391D01*
X027204Y024374D01*
X027221Y024356D01*
X027235Y024335D01*
X027246Y024313D01*
X027254Y024289D01*
X027258Y024265D01*
X027260Y024240D01*
X027260Y022781D01*
X027100Y022784D02*
X027100Y023970D01*
X027098Y023997D01*
X027093Y024024D01*
X027084Y024050D01*
X027072Y024075D01*
X027057Y024098D01*
X027038Y024118D01*
X027018Y024137D01*
X026995Y024152D01*
X026970Y024164D01*
X026944Y024173D01*
X026917Y024178D01*
X026890Y024180D01*
X026180Y024180D01*
X023680Y026680D01*
X023680Y027180D01*
X023180Y026680D02*
X025930Y023930D01*
X026690Y023930D01*
X026720Y023928D01*
X026750Y023923D01*
X026779Y023914D01*
X026806Y023901D01*
X026832Y023886D01*
X026856Y023867D01*
X026877Y023846D01*
X026896Y023822D01*
X026911Y023796D01*
X026924Y023769D01*
X026933Y023740D01*
X026938Y023710D01*
X026940Y023680D01*
X026940Y022786D01*
X026790Y022779D02*
X026790Y023360D01*
X026788Y023393D01*
X026783Y023427D01*
X026774Y023459D01*
X026762Y023490D01*
X026747Y023520D01*
X026729Y023548D01*
X026708Y023574D01*
X026684Y023598D01*
X026658Y023619D01*
X026630Y023637D01*
X026600Y023652D01*
X026569Y023664D01*
X026537Y023673D01*
X026503Y023678D01*
X026470Y023680D01*
X025680Y023680D01*
X022680Y026680D01*
X022680Y027180D01*
X023180Y026680D02*
X023180Y028180D01*
X024180Y028180D02*
X024180Y026680D01*
X025180Y026680D02*
X026930Y024930D01*
X027390Y024930D01*
X027530Y025180D02*
X027556Y025178D01*
X027582Y025173D01*
X027607Y025165D01*
X027630Y025153D01*
X027652Y025139D01*
X027671Y025121D01*
X027689Y025102D01*
X027703Y025080D01*
X027715Y025057D01*
X027723Y025032D01*
X027728Y025006D01*
X027730Y024980D01*
X027735Y022778D01*
X027578Y022778D02*
X027580Y022420D01*
X027578Y022778D02*
X027580Y024750D01*
X027577Y024776D01*
X027571Y024802D01*
X027561Y024826D01*
X027548Y024849D01*
X027531Y024870D01*
X027512Y024888D01*
X027491Y024903D01*
X027467Y024915D01*
X027442Y024924D01*
X027416Y024929D01*
X027390Y024930D01*
X027530Y025180D02*
X027180Y025180D01*
X025680Y026680D01*
X025680Y027180D01*
X025180Y026680D02*
X025180Y028180D01*
X026180Y028180D02*
X026180Y026680D01*
X027430Y025430D01*
X027700Y025430D01*
X027860Y025680D02*
X027885Y025678D01*
X027909Y025674D01*
X027933Y025666D01*
X027955Y025655D01*
X027976Y025641D01*
X027994Y025624D01*
X028011Y025606D01*
X028025Y025585D01*
X028036Y025563D01*
X028044Y025539D01*
X028048Y025515D01*
X028050Y025490D01*
X028050Y022778D01*
X027893Y022778D02*
X027890Y025240D01*
X027888Y025265D01*
X027884Y025289D01*
X027876Y025313D01*
X027865Y025335D01*
X027851Y025356D01*
X027834Y025374D01*
X027816Y025391D01*
X027795Y025405D01*
X027773Y025416D01*
X027749Y025424D01*
X027725Y025428D01*
X027700Y025430D01*
X027680Y025680D02*
X027860Y025680D01*
X027680Y025680D02*
X026680Y026680D01*
X026680Y027180D01*
X027180Y026680D02*
X027930Y025930D01*
X028050Y025930D01*
X028050Y025931D02*
X028074Y025929D01*
X028098Y025923D01*
X028120Y025914D01*
X028141Y025901D01*
X028159Y025885D01*
X028175Y025866D01*
X028187Y025845D01*
X028196Y025823D01*
X028202Y025799D01*
X028203Y025775D01*
X028200Y025750D01*
X028208Y022778D01*
X028365Y022778D02*
X028360Y026030D01*
X028360Y026070D01*
X028358Y026089D01*
X028353Y026108D01*
X028345Y026125D01*
X028334Y026141D01*
X028321Y026154D01*
X028305Y026165D01*
X028288Y026173D01*
X028269Y026178D01*
X028250Y026180D01*
X028180Y026180D01*
X027680Y026680D01*
X027680Y027180D01*
X028160Y026680D02*
X028520Y026310D01*
X028523Y022778D01*
X028680Y022778D02*
X028680Y027180D01*
X029180Y026680D02*
X028840Y026340D01*
X028840Y025950D01*
X028837Y025947D01*
X028837Y022778D01*
X028840Y022390D01*
X027690Y021910D02*
X027665Y021970D01*
X027643Y022032D01*
X027624Y022095D01*
X027609Y022159D01*
X027596Y022223D01*
X027588Y022289D01*
X027582Y022354D01*
X027580Y022420D01*
X028740Y022170D02*
X028762Y022191D01*
X028782Y022215D01*
X028800Y022241D01*
X028814Y022269D01*
X028826Y022298D01*
X028834Y022328D01*
X028839Y022359D01*
X028840Y022390D01*
X029000Y022420D02*
X028995Y022778D01*
X029000Y026050D01*
X029002Y026070D01*
X029006Y026090D01*
X029014Y026109D01*
X029025Y026126D01*
X029038Y026142D01*
X029054Y026155D01*
X029071Y026166D01*
X029090Y026174D01*
X029110Y026178D01*
X029130Y026180D01*
X029180Y026180D01*
X029680Y026680D01*
X029680Y027180D01*
X030180Y026690D02*
X029420Y025930D01*
X029330Y025930D01*
X029306Y025928D01*
X029282Y025923D01*
X029259Y025915D01*
X029238Y025903D01*
X029219Y025888D01*
X029202Y025871D01*
X029187Y025852D01*
X029175Y025831D01*
X029167Y025808D01*
X029162Y025784D01*
X029160Y025760D01*
X029160Y025740D01*
X029156Y025739D01*
X029153Y025736D01*
X029152Y025732D01*
X029152Y022778D01*
X029310Y022779D02*
X029310Y025520D01*
X029312Y025543D01*
X029316Y025565D01*
X029324Y025586D01*
X029335Y025607D01*
X029349Y025625D01*
X029365Y025641D01*
X029383Y025655D01*
X029404Y025666D01*
X029425Y025674D01*
X029447Y025678D01*
X029470Y025680D01*
X029690Y025680D01*
X030680Y026670D01*
X030680Y027180D01*
X030180Y026690D02*
X030180Y028180D01*
X031180Y028180D02*
X031180Y026670D01*
X029940Y025430D01*
X029630Y025430D01*
X029607Y025428D01*
X029585Y025424D01*
X029564Y025416D01*
X029543Y025405D01*
X029525Y025391D01*
X029509Y025375D01*
X029495Y025357D01*
X029484Y025336D01*
X029476Y025315D01*
X029472Y025293D01*
X029470Y025270D01*
X029470Y022781D01*
X029782Y022778D02*
X029780Y021560D01*
X029090Y022190D02*
X029067Y022218D01*
X029048Y022248D01*
X029031Y022280D01*
X029018Y022314D01*
X029008Y022348D01*
X029002Y022384D01*
X029000Y022420D01*
X031279Y022070D02*
X031860Y022070D01*
X031893Y022072D01*
X031927Y022077D01*
X031959Y022086D01*
X031990Y022098D01*
X032020Y022113D01*
X032048Y022131D01*
X032074Y022152D01*
X032098Y022176D01*
X032119Y022202D01*
X032137Y022230D01*
X032152Y022260D01*
X032164Y022291D01*
X032173Y022323D01*
X032178Y022357D01*
X032180Y022390D01*
X032180Y023180D01*
X035180Y026180D01*
X035680Y026180D01*
X035180Y025680D02*
X032430Y022930D01*
X032430Y022170D01*
X032680Y021970D02*
X032678Y021943D01*
X032673Y021916D01*
X032664Y021890D01*
X032652Y021865D01*
X032637Y021842D01*
X032618Y021822D01*
X032598Y021803D01*
X032575Y021788D01*
X032550Y021776D01*
X032524Y021767D01*
X032497Y021762D01*
X032470Y021760D01*
X031284Y021760D01*
X031282Y021759D01*
X031280Y021758D01*
X031279Y021755D01*
X031281Y021600D02*
X032740Y021600D01*
X032765Y021602D01*
X032789Y021606D01*
X032813Y021614D01*
X032835Y021625D01*
X032856Y021639D01*
X032874Y021656D01*
X032891Y021674D01*
X032905Y021695D01*
X032916Y021717D01*
X032924Y021741D01*
X032928Y021765D01*
X032930Y021790D01*
X032930Y022430D01*
X035180Y024680D01*
X036680Y024680D01*
X035680Y025180D02*
X035180Y025180D01*
X032680Y022680D01*
X032680Y021970D01*
X033180Y021610D02*
X033178Y021586D01*
X033173Y021562D01*
X033165Y021539D01*
X033153Y021518D01*
X033138Y021499D01*
X033121Y021482D01*
X033102Y021467D01*
X033081Y021455D01*
X033058Y021447D01*
X033034Y021442D01*
X033010Y021440D01*
X031279Y021440D01*
X031279Y021440D01*
X031279Y021440D01*
X031279Y021440D01*
X031278Y021597D02*
X031278Y021599D01*
X031280Y021600D01*
X031281Y021600D01*
X031278Y021912D02*
X031279Y021916D01*
X031282Y021919D01*
X031286Y021920D01*
X032180Y021920D01*
X032210Y021922D01*
X032240Y021927D01*
X032269Y021936D01*
X032296Y021949D01*
X032322Y021964D01*
X032346Y021983D01*
X032367Y022004D01*
X032386Y022028D01*
X032401Y022054D01*
X032414Y022081D01*
X032423Y022110D01*
X032428Y022140D01*
X032430Y022170D01*
X033180Y022180D02*
X033180Y021610D01*
X033430Y021470D02*
X033429Y021444D01*
X033424Y021418D01*
X033415Y021393D01*
X033403Y021369D01*
X033388Y021348D01*
X033370Y021329D01*
X033349Y021312D01*
X033326Y021299D01*
X033302Y021289D01*
X033276Y021283D01*
X033250Y021280D01*
X031278Y021282D01*
X031278Y021125D02*
X033480Y021130D01*
X033506Y021132D01*
X033532Y021137D01*
X033557Y021145D01*
X033580Y021157D01*
X033602Y021171D01*
X033621Y021189D01*
X033639Y021208D01*
X033653Y021230D01*
X033665Y021253D01*
X033673Y021278D01*
X033678Y021304D01*
X033680Y021330D01*
X033680Y021680D01*
X035180Y023180D01*
X035680Y023180D01*
X035180Y022680D02*
X033930Y021430D01*
X033930Y021160D01*
X034180Y021000D02*
X034178Y020975D01*
X034174Y020951D01*
X034166Y020927D01*
X034155Y020905D01*
X034141Y020884D01*
X034124Y020866D01*
X034106Y020849D01*
X034085Y020835D01*
X034063Y020824D01*
X034039Y020816D01*
X034015Y020812D01*
X033990Y020810D01*
X031278Y020810D01*
X031278Y020967D02*
X033740Y020970D01*
X033765Y020972D01*
X033789Y020976D01*
X033813Y020984D01*
X033835Y020995D01*
X033856Y021009D01*
X033874Y021026D01*
X033891Y021044D01*
X033905Y021065D01*
X033916Y021087D01*
X033924Y021111D01*
X033928Y021135D01*
X033930Y021160D01*
X034180Y021180D02*
X034180Y021000D01*
X034180Y021180D02*
X035180Y022180D01*
X035680Y022180D01*
X035180Y022680D02*
X036680Y022680D01*
X036680Y023680D02*
X035180Y023680D01*
X033430Y021930D01*
X033430Y021470D01*
X033180Y022180D02*
X035180Y024180D01*
X035680Y024180D01*
X035180Y025680D02*
X036680Y025680D01*
X031279Y022070D02*
X031279Y022070D01*
X031279Y022070D01*
X031279Y022070D01*
X031278Y020337D02*
X034810Y020340D01*
X035180Y020700D01*
X036680Y020680D01*
X035680Y020180D02*
X031278Y020180D01*
X031278Y020023D02*
X034447Y020023D01*
X034450Y020020D01*
X034840Y020020D01*
X035180Y019680D01*
X036680Y019680D01*
X035680Y019180D02*
X035180Y019180D01*
X034680Y019680D01*
X034680Y019730D01*
X034678Y019750D01*
X034674Y019770D01*
X034666Y019789D01*
X034655Y019806D01*
X034642Y019822D01*
X034626Y019835D01*
X034609Y019846D01*
X034590Y019854D01*
X034570Y019858D01*
X034550Y019860D01*
X031278Y019865D01*
X031278Y019708D02*
X034232Y019708D01*
X034236Y019707D01*
X034239Y019704D01*
X034240Y019700D01*
X034260Y019700D01*
X034284Y019698D01*
X034308Y019693D01*
X034331Y019685D01*
X034352Y019673D01*
X034371Y019658D01*
X034388Y019641D01*
X034403Y019622D01*
X034415Y019601D01*
X034423Y019578D01*
X034428Y019554D01*
X034430Y019530D01*
X034430Y019440D01*
X035190Y018680D01*
X036680Y018680D01*
X035680Y018180D02*
X035170Y018180D01*
X034180Y019170D01*
X034180Y019390D01*
X034178Y019413D01*
X034174Y019435D01*
X034166Y019456D01*
X034155Y019477D01*
X034141Y019495D01*
X034125Y019511D01*
X034107Y019525D01*
X034086Y019536D01*
X034065Y019544D01*
X034043Y019548D01*
X034020Y019550D01*
X031279Y019550D01*
X031279Y019550D01*
X031279Y019550D01*
X031279Y019550D01*
X031278Y019393D02*
X031278Y019392D01*
X031280Y019390D01*
X031281Y019390D01*
X033770Y019390D01*
X033793Y019388D01*
X033815Y019384D01*
X033836Y019376D01*
X033857Y019365D01*
X033875Y019351D01*
X033891Y019335D01*
X033905Y019317D01*
X033916Y019296D01*
X033924Y019275D01*
X033928Y019253D01*
X033930Y019230D01*
X033930Y018920D01*
X035170Y017680D01*
X036680Y017680D01*
X035680Y017180D02*
X035180Y017180D01*
X033680Y018680D01*
X033680Y019040D01*
X033678Y019065D01*
X033674Y019089D01*
X033666Y019113D01*
X033655Y019135D01*
X033641Y019156D01*
X033624Y019174D01*
X033606Y019191D01*
X033585Y019205D01*
X033563Y019216D01*
X033539Y019224D01*
X033515Y019228D01*
X033490Y019230D01*
X031284Y019230D01*
X031282Y019231D01*
X031280Y019233D01*
X031279Y019235D01*
X031278Y019078D02*
X031279Y019074D01*
X031282Y019071D01*
X031286Y019070D01*
X033260Y019070D01*
X033284Y019068D01*
X033308Y019063D01*
X033331Y019055D01*
X033352Y019043D01*
X033371Y019028D01*
X033388Y019011D01*
X033403Y018992D01*
X033415Y018971D01*
X033423Y018948D01*
X033428Y018924D01*
X033430Y018900D01*
X033430Y018430D01*
X035180Y016680D01*
X036680Y016680D01*
X035680Y016180D02*
X035180Y016180D01*
X033180Y018180D01*
X033180Y018720D01*
X033178Y018746D01*
X033173Y018772D01*
X033165Y018797D01*
X033153Y018820D01*
X033139Y018842D01*
X033121Y018861D01*
X033102Y018879D01*
X033080Y018893D01*
X033057Y018905D01*
X033032Y018913D01*
X033006Y018918D01*
X032980Y018920D01*
X031279Y018920D01*
X031279Y018920D01*
X031279Y018920D01*
X031279Y018920D01*
X031278Y018763D02*
X031278Y018762D01*
X031280Y018760D01*
X031281Y018760D01*
X032760Y018760D01*
X032784Y018758D01*
X032808Y018753D01*
X032831Y018745D01*
X032852Y018733D01*
X032871Y018718D01*
X032888Y018701D01*
X032903Y018682D01*
X032915Y018661D01*
X032923Y018638D01*
X032928Y018614D01*
X032930Y018590D01*
X032930Y017930D01*
X035180Y015680D01*
X036680Y015680D01*
X035680Y015180D02*
X035180Y015180D01*
X032680Y017680D01*
X032680Y018450D01*
X032678Y018473D01*
X032673Y018496D01*
X032664Y018518D01*
X032651Y018538D01*
X032636Y018556D01*
X032618Y018571D01*
X032598Y018584D01*
X032576Y018593D01*
X032553Y018598D01*
X032530Y018600D01*
X031278Y018605D01*
X031281Y018450D02*
X032260Y018450D01*
X032284Y018448D01*
X032308Y018443D01*
X032331Y018435D01*
X032352Y018423D01*
X032371Y018408D01*
X032388Y018391D01*
X032403Y018372D01*
X032415Y018351D01*
X032423Y018328D01*
X032428Y018304D01*
X032430Y018280D01*
X032430Y017430D01*
X035180Y014680D01*
X036680Y014680D01*
X035680Y014180D02*
X035180Y014180D01*
X032180Y017180D01*
X032180Y018140D01*
X032178Y018163D01*
X032173Y018186D01*
X032164Y018208D01*
X032151Y018228D01*
X032136Y018246D01*
X032118Y018261D01*
X032098Y018274D01*
X032076Y018283D01*
X032053Y018288D01*
X032030Y018290D01*
X031279Y018290D01*
X031279Y018290D01*
X031279Y018290D01*
X031279Y018290D01*
X031278Y018448D02*
X030720Y018450D01*
X030680Y018452D01*
X030640Y018457D01*
X030601Y018466D01*
X030563Y018478D01*
X030525Y018494D01*
X030490Y018512D01*
X030456Y018534D01*
X030424Y018558D01*
X030394Y018585D01*
X030367Y018614D01*
X030342Y018646D01*
X030320Y018680D01*
X031279Y018448D02*
X031279Y018449D01*
X031280Y018450D01*
X031281Y018450D01*
X027890Y017579D02*
X027890Y015090D01*
X027888Y015067D01*
X027884Y015045D01*
X027876Y015024D01*
X027865Y015003D01*
X027851Y014985D01*
X027835Y014969D01*
X027817Y014955D01*
X027796Y014944D01*
X027775Y014936D01*
X027753Y014932D01*
X027730Y014930D01*
X027420Y014930D01*
X026180Y013690D01*
X026180Y012180D01*
X025180Y012180D02*
X025180Y013680D01*
X026930Y015430D01*
X027400Y015430D01*
X027540Y015180D02*
X027565Y015182D01*
X027589Y015186D01*
X027613Y015194D01*
X027635Y015205D01*
X027656Y015219D01*
X027674Y015236D01*
X027691Y015254D01*
X027705Y015275D01*
X027716Y015297D01*
X027724Y015321D01*
X027728Y015345D01*
X027730Y015370D01*
X027730Y017576D01*
X027570Y017574D02*
X027570Y015600D01*
X027568Y015576D01*
X027563Y015552D01*
X027555Y015529D01*
X027543Y015508D01*
X027528Y015489D01*
X027511Y015472D01*
X027492Y015457D01*
X027471Y015445D01*
X027448Y015437D01*
X027424Y015432D01*
X027400Y015430D01*
X027540Y015180D02*
X027180Y015180D01*
X025680Y013680D01*
X025680Y013180D01*
X024680Y013180D02*
X024680Y013680D01*
X026680Y015680D01*
X027220Y015680D01*
X027246Y015682D01*
X027272Y015687D01*
X027297Y015695D01*
X027320Y015707D01*
X027342Y015721D01*
X027361Y015739D01*
X027379Y015758D01*
X027393Y015780D01*
X027405Y015803D01*
X027413Y015828D01*
X027418Y015854D01*
X027420Y015880D01*
X027420Y017581D01*
X027260Y017579D02*
X027260Y016100D01*
X027258Y016076D01*
X027253Y016052D01*
X027245Y016029D01*
X027233Y016008D01*
X027218Y015989D01*
X027201Y015972D01*
X027182Y015957D01*
X027161Y015945D01*
X027138Y015937D01*
X027114Y015932D01*
X027090Y015930D01*
X026430Y015930D01*
X024180Y013680D01*
X024180Y012180D01*
X023180Y012180D02*
X023180Y013680D01*
X025930Y016430D01*
X026780Y016430D01*
X026804Y016432D01*
X026828Y016437D01*
X026851Y016445D01*
X026872Y016457D01*
X026891Y016472D01*
X026908Y016489D01*
X026923Y016508D01*
X026935Y016529D01*
X026943Y016552D01*
X026948Y016576D01*
X026950Y016600D01*
X026950Y017579D01*
X027105Y017582D02*
X027100Y016330D01*
X027098Y016307D01*
X027093Y016284D01*
X027084Y016262D01*
X027071Y016242D01*
X027056Y016224D01*
X027038Y016209D01*
X027018Y016196D01*
X026996Y016187D01*
X026973Y016182D01*
X026950Y016180D01*
X026180Y016180D01*
X023680Y013680D01*
X023680Y013180D01*
X022680Y013180D02*
X022680Y013680D01*
X025680Y016680D01*
X026640Y016680D01*
X026663Y016682D01*
X026686Y016687D01*
X026708Y016696D01*
X026728Y016709D01*
X026746Y016724D01*
X026761Y016742D01*
X026774Y016762D01*
X026783Y016784D01*
X026788Y016807D01*
X026790Y016830D01*
X026790Y017581D01*
X026530Y018290D02*
X026950Y018430D01*
X026530Y018290D02*
X026082Y018290D01*
X025300Y018290D01*
X025279Y018288D01*
X025259Y018283D01*
X025240Y018274D01*
X025223Y018262D01*
X025208Y018247D01*
X025196Y018230D01*
X025187Y018211D01*
X025182Y018191D01*
X025180Y018170D01*
X025180Y017180D01*
X022180Y014180D01*
X021680Y014180D01*
X022180Y014680D02*
X020680Y014680D01*
X021680Y015180D02*
X022180Y015180D01*
X024680Y017680D01*
X024680Y018390D01*
X024430Y018570D02*
X024432Y018595D01*
X024436Y018619D01*
X024444Y018643D01*
X024455Y018665D01*
X024469Y018686D01*
X024486Y018704D01*
X024504Y018721D01*
X024525Y018735D01*
X024547Y018746D01*
X024571Y018754D01*
X024595Y018758D01*
X024620Y018760D01*
X026079Y018760D01*
X026081Y018920D02*
X024350Y018920D01*
X024326Y018918D01*
X024302Y018913D01*
X024279Y018905D01*
X024258Y018893D01*
X024239Y018878D01*
X024222Y018861D01*
X024207Y018842D01*
X024195Y018821D01*
X024187Y018798D01*
X024182Y018774D01*
X024180Y018750D01*
X024180Y018180D01*
X022180Y016180D01*
X021680Y016180D01*
X022180Y016680D02*
X020680Y016680D01*
X021680Y017180D02*
X022180Y017180D01*
X023680Y018680D01*
X023680Y019030D01*
X023430Y019200D02*
X023432Y019225D01*
X023436Y019249D01*
X023444Y019273D01*
X023455Y019295D01*
X023469Y019316D01*
X023486Y019334D01*
X023504Y019351D01*
X023525Y019365D01*
X023547Y019376D01*
X023571Y019384D01*
X023595Y019388D01*
X023620Y019390D01*
X026082Y019393D01*
X026082Y019550D02*
X023370Y019550D01*
X023345Y019548D01*
X023321Y019544D01*
X023297Y019536D01*
X023275Y019525D01*
X023254Y019511D01*
X023236Y019494D01*
X023219Y019476D01*
X023205Y019455D01*
X023194Y019433D01*
X023186Y019409D01*
X023182Y019385D01*
X023180Y019360D01*
X023180Y019180D01*
X022180Y018180D01*
X021680Y018180D01*
X022180Y018680D02*
X020680Y018680D01*
X021680Y019180D02*
X022180Y019180D01*
X022680Y019680D01*
X022680Y019750D01*
X022682Y019769D01*
X022687Y019788D01*
X022695Y019805D01*
X022706Y019821D01*
X022719Y019834D01*
X022735Y019845D01*
X022752Y019853D01*
X022771Y019858D01*
X022790Y019860D01*
X022830Y019860D01*
X026082Y019865D01*
X026490Y019860D01*
X026499Y021440D02*
X026579Y021438D01*
X026659Y021433D01*
X026738Y021424D01*
X026817Y021412D01*
X026895Y021396D01*
X026973Y021377D01*
X027049Y021355D01*
X027125Y021329D01*
X027199Y021300D01*
X026500Y021440D02*
X026082Y021440D01*
X026081Y021440D01*
X026081Y021440D01*
X024380Y021440D01*
X024354Y021442D01*
X024328Y021447D01*
X024303Y021455D01*
X024280Y021467D01*
X024258Y021481D01*
X024239Y021499D01*
X024221Y021518D01*
X024207Y021540D01*
X024195Y021563D01*
X024187Y021588D01*
X024182Y021614D01*
X024180Y021640D01*
X024180Y022180D01*
X022180Y024180D01*
X021680Y024180D01*
X022180Y023680D02*
X020680Y023680D01*
X021680Y023180D02*
X022180Y023180D01*
X023680Y021680D01*
X023680Y021320D01*
X023682Y021295D01*
X023686Y021271D01*
X023694Y021247D01*
X023705Y021225D01*
X023719Y021204D01*
X023736Y021186D01*
X023754Y021169D01*
X023775Y021155D01*
X023797Y021144D01*
X023821Y021136D01*
X023845Y021132D01*
X023870Y021130D01*
X026076Y021130D01*
X026074Y021290D02*
X024100Y021290D01*
X024076Y021292D01*
X024052Y021297D01*
X024029Y021305D01*
X024008Y021317D01*
X023989Y021332D01*
X023972Y021349D01*
X023957Y021368D01*
X023945Y021389D01*
X023937Y021412D01*
X023932Y021436D01*
X023930Y021460D01*
X023930Y021930D01*
X022180Y023680D01*
X022190Y022680D02*
X020680Y022680D01*
X021680Y022180D02*
X022190Y022180D01*
X023180Y021190D01*
X023180Y020970D01*
X023182Y020947D01*
X023186Y020925D01*
X023194Y020904D01*
X023205Y020883D01*
X023219Y020865D01*
X023235Y020849D01*
X023253Y020835D01*
X023274Y020824D01*
X023295Y020816D01*
X023317Y020812D01*
X023340Y020810D01*
X026081Y020810D01*
X026082Y020652D02*
X023128Y020652D01*
X023124Y020653D01*
X023121Y020656D01*
X023120Y020660D01*
X023100Y020660D01*
X023076Y020662D01*
X023052Y020667D01*
X023029Y020675D01*
X023008Y020687D01*
X022989Y020702D01*
X022972Y020719D01*
X022957Y020738D01*
X022945Y020759D01*
X022937Y020782D01*
X022932Y020806D01*
X022930Y020830D01*
X022930Y020920D01*
X022170Y021680D01*
X020680Y021680D01*
X021680Y021180D02*
X022180Y021180D01*
X022680Y020680D01*
X022680Y020630D01*
X022682Y020610D01*
X022686Y020590D01*
X022694Y020571D01*
X022705Y020554D01*
X022718Y020538D01*
X022734Y020525D01*
X022751Y020514D01*
X022770Y020506D01*
X022790Y020502D01*
X022810Y020500D01*
X026082Y020495D01*
X026082Y020337D02*
X026510Y020340D01*
X026082Y020337D02*
X022913Y020337D01*
X022910Y020340D01*
X022520Y020340D01*
X022180Y020680D01*
X020680Y020680D01*
X030470Y021080D02*
X030466Y021230D01*
X030459Y021380D01*
X030450Y021530D01*
X026980Y020500D02*
X026939Y020471D01*
X026896Y020444D01*
X026851Y020420D01*
X026805Y020400D01*
X026758Y020382D01*
X026709Y020367D01*
X026660Y020356D01*
X026610Y020347D01*
X026560Y020342D01*
X026510Y020340D01*
X026082Y020180D02*
X021680Y020180D01*
X022180Y019660D02*
X020680Y019680D01*
X022180Y019660D02*
X022550Y020020D01*
X026082Y020023D01*
X026082Y019708D02*
X023110Y019700D01*
X023085Y019703D01*
X023061Y019702D01*
X023037Y019696D01*
X023015Y019687D01*
X022994Y019675D01*
X022975Y019659D01*
X022959Y019641D01*
X022946Y019620D01*
X022937Y019598D01*
X022931Y019574D01*
X022929Y019550D01*
X022930Y019550D02*
X022930Y019430D01*
X022180Y018680D01*
X022180Y017680D02*
X023430Y018930D01*
X023430Y019200D01*
X023880Y019230D02*
X026082Y019235D01*
X026082Y019078D02*
X024110Y019080D01*
X024084Y019077D01*
X024058Y019071D01*
X024034Y019061D01*
X024011Y019048D01*
X023990Y019031D01*
X023972Y019012D01*
X023957Y018991D01*
X023945Y018967D01*
X023936Y018942D01*
X023931Y018916D01*
X023930Y018890D01*
X023930Y018430D01*
X022180Y016680D01*
X022180Y017680D02*
X020680Y017680D01*
X020680Y015680D02*
X022180Y015680D01*
X024430Y017930D01*
X024430Y018570D01*
X024890Y018600D02*
X026076Y018600D01*
X026082Y018448D02*
X025170Y018440D01*
X025180Y018440D01*
X025150Y018438D01*
X025120Y018433D01*
X025091Y018424D01*
X025064Y018411D01*
X025038Y018396D01*
X025014Y018377D01*
X024993Y018356D01*
X024974Y018332D01*
X024959Y018306D01*
X024946Y018279D01*
X024937Y018250D01*
X024932Y018220D01*
X024930Y018190D01*
X024930Y017430D01*
X022180Y014680D01*
X027200Y021300D02*
X027355Y021233D01*
X027509Y021163D01*
X027661Y021089D01*
X027812Y021011D01*
X027960Y020930D01*
X026079Y020970D02*
X023590Y020970D01*
X023567Y020972D01*
X023545Y020976D01*
X023524Y020984D01*
X023503Y020995D01*
X023485Y021009D01*
X023469Y021025D01*
X023455Y021043D01*
X023444Y021064D01*
X023436Y021085D01*
X023432Y021107D01*
X023430Y021130D01*
X023430Y021440D01*
X022190Y022680D01*
X022180Y024680D02*
X024430Y022430D01*
X024430Y021770D01*
X024432Y021746D01*
X024437Y021722D01*
X024445Y021699D01*
X024457Y021678D01*
X024472Y021659D01*
X024489Y021642D01*
X024508Y021627D01*
X024529Y021615D01*
X024552Y021607D01*
X024576Y021602D01*
X024600Y021600D01*
X026079Y021600D01*
X026082Y021755D02*
X024830Y021760D01*
X024807Y021762D01*
X024784Y021767D01*
X024762Y021776D01*
X024742Y021789D01*
X024724Y021804D01*
X024709Y021822D01*
X024696Y021842D01*
X024687Y021864D01*
X024682Y021887D01*
X024680Y021910D01*
X024680Y022680D01*
X022180Y025180D01*
X021680Y025180D01*
X022180Y024680D02*
X020680Y024680D01*
X020680Y025680D02*
X022180Y025680D01*
X024930Y022930D01*
X024930Y022080D01*
X024932Y022056D01*
X024937Y022032D01*
X024945Y022009D01*
X024957Y021988D01*
X024972Y021969D01*
X024989Y021952D01*
X025008Y021937D01*
X025029Y021925D01*
X025052Y021917D01*
X025076Y021912D01*
X025100Y021910D01*
X026079Y021910D01*
X026081Y022070D02*
X025330Y022070D01*
X025307Y022072D01*
X025284Y022077D01*
X025262Y022086D01*
X025242Y022099D01*
X025224Y022114D01*
X025209Y022132D01*
X025196Y022152D01*
X025187Y022174D01*
X025182Y022197D01*
X025180Y022220D01*
X025180Y023180D01*
X022180Y026180D01*
X021680Y026180D01*
X027180Y026680D02*
X027180Y028180D01*
X028180Y028180D02*
X028160Y026680D01*
X029180Y026680D02*
X029180Y028180D01*
X028681Y018790D02*
X028666Y018683D01*
X028650Y018576D01*
X028631Y018470D01*
X026530Y018290D02*
X026530Y018290D01*
X026530Y018290D01*
X026530Y018290D01*
X026980Y019720D02*
X026930Y019748D01*
X026878Y019773D01*
X026826Y019795D01*
X026772Y019814D01*
X026717Y019830D01*
X026661Y019843D01*
X026604Y019852D01*
X026547Y019858D01*
X026490Y019860D01*
X024890Y018600D02*
X024863Y018598D01*
X024836Y018593D01*
X024810Y018584D01*
X024785Y018572D01*
X024762Y018557D01*
X024742Y018538D01*
X024723Y018518D01*
X024708Y018495D01*
X024696Y018470D01*
X024687Y018444D01*
X024682Y018417D01*
X024680Y018390D01*
X023880Y019230D02*
X023854Y019228D01*
X023828Y019223D01*
X023803Y019215D01*
X023780Y019203D01*
X023758Y019189D01*
X023739Y019171D01*
X023721Y019152D01*
X023707Y019130D01*
X023695Y019107D01*
X023687Y019082D01*
X023682Y019056D01*
X023680Y019030D01*
X029540Y019670D02*
X029635Y019863D01*
X029733Y020054D01*
X029835Y020243D01*
X029940Y020430D01*
X029300Y021959D02*
X029090Y022189D01*
D44*
X040555Y026930D02*
X042993Y026968D01*
X040555Y027930D02*
X040555Y028743D01*
X040043Y029681D02*
X039368Y029680D01*
X041067Y030055D02*
X041743Y030055D01*
X041765Y032430D02*
X042430Y032430D01*
X042432Y032416D01*
X042436Y032403D01*
X042444Y032391D01*
X042454Y032381D01*
X042466Y032373D01*
X042479Y032369D01*
X042493Y032367D01*
X042493Y032368D02*
X043180Y032368D01*
X046680Y033930D02*
X046680Y037180D01*
X048680Y037180D02*
X048680Y033930D01*
X047680Y032680D02*
X047680Y031442D01*
X047306Y031442D02*
X047180Y031993D01*
X051930Y030555D02*
X057180Y030590D01*
X057180Y029510D02*
X051930Y029555D01*
X048118Y026430D02*
X047129Y026430D01*
X046106Y026056D02*
X045555Y026055D01*
X051930Y018430D02*
X053805Y018430D01*
X053842Y018428D01*
X053878Y018423D01*
X053914Y018414D01*
X053949Y018401D01*
X053982Y018386D01*
X054013Y018367D01*
X054043Y018345D01*
X054070Y018320D01*
X054095Y018293D01*
X054117Y018263D01*
X054136Y018232D01*
X054151Y018199D01*
X054164Y018164D01*
X054173Y018128D01*
X054178Y018092D01*
X054180Y018055D01*
X054180Y014430D01*
X054182Y014394D01*
X054187Y014359D01*
X054197Y014325D01*
X054209Y014292D01*
X054226Y014260D01*
X054245Y014230D01*
X054267Y014202D01*
X054292Y014177D01*
X054320Y014155D01*
X054350Y014136D01*
X054382Y014119D01*
X054415Y014107D01*
X054449Y014097D01*
X054484Y014092D01*
X054520Y014090D01*
X057180Y014090D01*
X057180Y013010D02*
X054100Y013010D01*
X054061Y013012D01*
X054023Y013017D01*
X053985Y013026D01*
X053948Y013038D01*
X053913Y013054D01*
X053879Y013073D01*
X053847Y013095D01*
X053817Y013120D01*
X053790Y013147D01*
X053765Y013177D01*
X053743Y013209D01*
X053724Y013243D01*
X053708Y013278D01*
X053696Y013315D01*
X053687Y013353D01*
X053682Y013391D01*
X053680Y013430D01*
X053680Y017055D01*
X053681Y017055D02*
X053686Y017088D01*
X053687Y017122D01*
X053685Y017155D01*
X053679Y017188D01*
X053670Y017220D01*
X053658Y017251D01*
X053642Y017281D01*
X053624Y017309D01*
X053602Y017334D01*
X053579Y017358D01*
X053552Y017378D01*
X053524Y017396D01*
X053494Y017411D01*
X053463Y017423D01*
X053431Y017431D01*
X053430Y017430D02*
X051930Y017430D01*
X041993Y013618D02*
X041442Y013492D01*
X040418Y012743D02*
X039805Y012618D01*
X011180Y031493D02*
X011180Y032180D01*
X012390Y032180D01*
X011180Y032180D02*
X009970Y032180D01*
X008243Y032868D02*
X006680Y032868D01*
X006680Y033868D02*
X006680Y037180D01*
X008992Y032805D02*
X009070Y032775D01*
X009148Y032748D01*
X009228Y032725D01*
X009309Y032705D01*
X009391Y032689D01*
X009473Y032677D01*
X009555Y032668D01*
X009638Y032663D01*
X009721Y032662D01*
X009804Y032664D01*
X009887Y032670D01*
X009970Y032680D01*
X009970Y033680D02*
X011180Y033680D01*
X011180Y034430D01*
X011180Y033680D02*
X012390Y033680D01*
X008993Y032805D02*
X008900Y032826D01*
X008808Y032844D01*
X008714Y032857D01*
X008620Y032867D01*
X008526Y032873D01*
X008431Y032875D01*
X008337Y032873D01*
X008242Y032867D01*
X029180Y032993D02*
X029180Y033930D01*
X029180Y034930D02*
X029180Y036180D01*
D45*
X035055Y033618D02*
X035055Y032890D01*
X036055Y032890D02*
X036055Y033618D01*
X036055Y033805D01*
X036057Y033835D01*
X036062Y033865D01*
X036071Y033894D01*
X036084Y033921D01*
X036099Y033947D01*
X036118Y033971D01*
X036139Y033992D01*
X036163Y034011D01*
X036189Y034026D01*
X036216Y034039D01*
X036245Y034048D01*
X036275Y034053D01*
X036305Y034055D01*
X037618Y034055D01*
X037618Y034056D02*
X037651Y034054D01*
X037683Y034049D01*
X037715Y034041D01*
X037745Y034029D01*
X037775Y034014D01*
X037802Y033996D01*
X037827Y033976D01*
X037851Y033952D01*
X037871Y033927D01*
X037889Y033900D01*
X037904Y033870D01*
X037916Y033840D01*
X037924Y033808D01*
X037929Y033776D01*
X037931Y033743D01*
X037930Y033743D02*
X037930Y033180D01*
X037932Y033150D01*
X037937Y033120D01*
X037946Y033091D01*
X037959Y033064D01*
X037974Y033038D01*
X037993Y033014D01*
X038014Y032993D01*
X038038Y032974D01*
X038064Y032959D01*
X038091Y032946D01*
X038120Y032937D01*
X038150Y032932D01*
X038180Y032930D01*
X038618Y032930D01*
X039345Y032930D01*
X041743Y030055D02*
X042993Y029768D01*
X044618Y030555D02*
X045655Y030555D01*
X045663Y030554D01*
X045670Y030550D01*
X045675Y030545D01*
X045679Y030538D01*
X045680Y030530D01*
X044618Y030555D02*
X044585Y030557D01*
X044553Y030562D01*
X044521Y030570D01*
X044491Y030582D01*
X044462Y030597D01*
X044434Y030615D01*
X044409Y030635D01*
X044385Y030659D01*
X044365Y030684D01*
X044347Y030712D01*
X044332Y030741D01*
X044320Y030771D01*
X044312Y030803D01*
X044307Y030835D01*
X044305Y030868D01*
X044305Y033180D01*
X045680Y032330D02*
X045680Y037180D01*
X047055Y032180D02*
X047081Y032160D01*
X047104Y032137D01*
X047125Y032111D01*
X047144Y032084D01*
X047159Y032055D01*
X047171Y032024D01*
X047180Y031993D01*
X047055Y032180D02*
X047013Y032207D01*
X046969Y032232D01*
X046924Y032253D01*
X046877Y032270D01*
X046829Y032285D01*
X046780Y032295D01*
X046730Y032302D01*
X046680Y032305D01*
X045680Y032330D01*
X048930Y023930D02*
X048930Y022930D01*
X048930Y021930D01*
X048930Y018805D01*
X048930Y017930D01*
X048930Y016930D02*
X047640Y016930D01*
X047640Y016430D02*
X046680Y016430D01*
X046650Y016432D01*
X046620Y016437D01*
X046591Y016446D01*
X046564Y016459D01*
X046538Y016474D01*
X046514Y016493D01*
X046493Y016514D01*
X046474Y016538D01*
X046459Y016564D01*
X046446Y016591D01*
X046437Y016620D01*
X046432Y016650D01*
X046430Y016680D01*
X046430Y017680D01*
X046180Y015930D02*
X045220Y015930D01*
X046180Y015930D02*
X046210Y015928D01*
X046240Y015923D01*
X046269Y015914D01*
X046296Y015901D01*
X046322Y015886D01*
X046346Y015867D01*
X046367Y015846D01*
X046386Y015822D01*
X046401Y015796D01*
X046414Y015769D01*
X046423Y015740D01*
X046428Y015710D01*
X046430Y015680D01*
X046430Y014680D01*
X046805Y013555D02*
X046140Y013493D01*
X046140Y011993D02*
X046805Y011930D01*
X047640Y015930D02*
X048930Y015930D01*
X048930Y016930D01*
X031680Y029305D02*
X031680Y030118D01*
X033180Y030118D01*
X022742Y033180D02*
X022693Y033219D01*
X022643Y033254D01*
X022590Y033287D01*
X022535Y033316D01*
X022478Y033343D01*
X022421Y033366D01*
X022362Y033385D01*
X022302Y033401D01*
X022241Y033414D01*
X022179Y033423D01*
X022117Y033428D01*
X022055Y033430D01*
X020906Y033430D01*
X020906Y032930D02*
X020055Y032930D01*
X017954Y032930D02*
X016680Y032930D01*
X017243Y032430D02*
X017954Y032430D01*
X017954Y031930D02*
X016680Y031930D01*
X017243Y031430D02*
X017954Y031430D01*
X017954Y030930D02*
X016680Y030930D01*
X017243Y033430D02*
X017954Y033430D01*
X017368Y020930D02*
X016430Y020930D01*
X016430Y019580D01*
X015430Y020930D02*
X015430Y018055D01*
X015428Y018024D01*
X015423Y017994D01*
X015415Y017964D01*
X015403Y017936D01*
X015388Y017909D01*
X015370Y017884D01*
X015349Y017861D01*
X015326Y017840D01*
X015301Y017822D01*
X015274Y017807D01*
X015246Y017795D01*
X015216Y017787D01*
X015186Y017782D01*
X015155Y017780D01*
X014430Y017780D01*
X013430Y017743D01*
X017680Y014932D02*
X017680Y013805D01*
X017678Y013775D01*
X017673Y013745D01*
X017664Y013716D01*
X017651Y013689D01*
X017636Y013663D01*
X017617Y013639D01*
X017596Y013618D01*
X017572Y013599D01*
X017546Y013584D01*
X017519Y013571D01*
X017490Y013562D01*
X017460Y013557D01*
X017430Y013555D01*
X016930Y013555D01*
X019180Y013243D02*
X019180Y012178D01*
X019180Y013243D02*
X019182Y013276D01*
X019187Y013308D01*
X019195Y013340D01*
X019207Y013370D01*
X019222Y013400D01*
X019240Y013427D01*
X019260Y013452D01*
X019284Y013476D01*
X019309Y013496D01*
X019337Y013514D01*
X019366Y013529D01*
X019396Y013541D01*
X019428Y013549D01*
X019460Y013554D01*
X019493Y013556D01*
X019493Y013555D02*
X019930Y013555D01*
D46*
X020200Y004820D02*
X020255Y004746D01*
X020314Y004675D01*
X020376Y004606D01*
X020440Y004539D01*
X020507Y004475D01*
X020576Y004414D01*
X020648Y004356D01*
X020722Y004301D01*
X020799Y004249D01*
X020877Y004200D01*
X020958Y004155D01*
X021040Y004112D01*
X021124Y004074D01*
X021210Y004038D01*
X021296Y004006D01*
X021384Y003978D01*
X021474Y003953D01*
X021564Y003933D01*
X021655Y003915D01*
X021746Y003902D01*
X021838Y003892D01*
X021930Y003886D01*
X022023Y003884D01*
X022115Y003886D01*
X022208Y003891D01*
X022300Y003900D01*
X027600Y003900D01*
X027609Y003901D01*
X027618Y003906D01*
X027624Y003912D01*
X027629Y003921D01*
X027630Y003930D01*
X020199Y004819D02*
X020163Y004882D01*
X020123Y004943D01*
X020080Y005002D01*
X020035Y005058D01*
X019986Y005112D01*
X019935Y005164D01*
X019881Y005213D01*
X019825Y005259D01*
X019766Y005302D01*
X019706Y005342D01*
X019643Y005380D01*
X019579Y005413D01*
X019513Y005444D01*
X019445Y005471D01*
X019377Y005495D01*
X019307Y005515D01*
X019236Y005531D01*
X019164Y005544D01*
X019092Y005553D01*
X019020Y005559D01*
X019020Y005560D02*
X013100Y005560D01*
X013042Y005558D01*
X012985Y005553D01*
X012928Y005544D01*
X012871Y005531D01*
X012816Y005515D01*
X012761Y005495D01*
X012708Y005472D01*
X012657Y005446D01*
X012607Y005417D01*
X012559Y005384D01*
X012514Y005349D01*
X012470Y005311D01*
X012429Y005270D01*
X012391Y005226D01*
X012356Y005181D01*
X012323Y005133D01*
X012294Y005083D01*
X012268Y005032D01*
X012245Y004979D01*
X012225Y004924D01*
X012209Y004869D01*
X012196Y004812D01*
X012187Y004755D01*
X012182Y004698D01*
X012180Y004640D01*
X012180Y003180D01*
D47*
X010430Y015205D02*
X007930Y015205D01*
X007928Y015232D01*
X007923Y015259D01*
X007915Y015285D01*
X007904Y015310D01*
X007890Y015333D01*
X007873Y015354D01*
X007854Y015373D01*
X007833Y015390D01*
X007810Y015404D01*
X007785Y015415D01*
X007759Y015423D01*
X007732Y015428D01*
X007705Y015430D01*
X007430Y015430D01*
X012430Y016180D02*
X012440Y016180D01*
X013930Y022210D02*
X013930Y022430D01*
X013930Y022210D02*
X013931Y022201D01*
X013936Y022192D01*
X013942Y022186D01*
X013951Y022181D01*
X013960Y022180D01*
X013960Y024430D02*
X013868Y024430D01*
X013960Y024430D02*
X016368Y024430D01*
X016405Y024432D01*
X016441Y024437D01*
X016477Y024446D01*
X016512Y024459D01*
X016545Y024474D01*
X016576Y024493D01*
X016606Y024515D01*
X016633Y024540D01*
X016658Y024567D01*
X016680Y024597D01*
X016699Y024628D01*
X016714Y024661D01*
X016727Y024696D01*
X016736Y024732D01*
X016741Y024768D01*
X016743Y024805D01*
X016743Y027805D01*
X016743Y028180D01*
X016737Y028216D01*
X016729Y028251D01*
X016716Y028285D01*
X016700Y028317D01*
X016681Y028348D01*
X016659Y028376D01*
X016633Y028402D01*
X016606Y028425D01*
X016576Y028445D01*
X016544Y028462D01*
X016510Y028476D01*
X016475Y028485D01*
X016440Y028492D01*
X016404Y028494D01*
X016368Y028493D01*
X014680Y028493D01*
X014636Y028497D01*
X014593Y028505D01*
X014550Y028517D01*
X014509Y028532D01*
X014469Y028550D01*
X014431Y028572D01*
X014394Y028596D01*
X014360Y028624D01*
X014328Y028654D01*
X014299Y028687D01*
X014273Y028722D01*
X014249Y028760D01*
X014229Y028799D01*
X014212Y028839D01*
X014199Y028881D01*
X014189Y028924D01*
X014182Y028967D01*
X014179Y029011D01*
X014180Y029055D01*
X014180Y029889D01*
X014107Y030066D02*
X013128Y031044D01*
X012951Y031118D02*
X012305Y031118D01*
X012951Y031118D02*
X012979Y031116D01*
X013007Y031112D01*
X013034Y031104D01*
X013059Y031093D01*
X013084Y031080D01*
X013107Y031063D01*
X013128Y031045D01*
X014107Y030066D02*
X014125Y030045D01*
X014142Y030022D01*
X014155Y029997D01*
X014166Y029972D01*
X014174Y029945D01*
X014178Y029917D01*
X014180Y029889D01*
X012305Y031117D02*
X012225Y031119D01*
X012144Y031124D01*
X012064Y031133D01*
X011985Y031145D01*
X011906Y031160D01*
X011828Y031179D01*
X011750Y031201D01*
X011674Y031226D01*
X011599Y031255D01*
X011525Y031287D01*
X011453Y031322D01*
X011382Y031360D01*
X011313Y031401D01*
X011245Y031445D01*
X011180Y031492D01*
D48*
X015868Y030680D02*
X015868Y034243D01*
X015870Y034273D01*
X015875Y034303D01*
X015884Y034332D01*
X015897Y034359D01*
X015912Y034385D01*
X015931Y034409D01*
X015952Y034430D01*
X015976Y034449D01*
X016002Y034464D01*
X016029Y034477D01*
X016058Y034486D01*
X016088Y034491D01*
X016118Y034493D01*
X016305Y034493D01*
X016335Y034495D01*
X016365Y034500D01*
X016394Y034509D01*
X016421Y034522D01*
X016447Y034537D01*
X016471Y034556D01*
X016492Y034577D01*
X016511Y034601D01*
X016526Y034627D01*
X016539Y034654D01*
X016548Y034683D01*
X016553Y034713D01*
X016555Y034743D01*
X016600Y036180D01*
X017680Y036180D02*
X017743Y034805D01*
X017745Y034775D01*
X017750Y034745D01*
X017759Y034716D01*
X017772Y034689D01*
X017787Y034663D01*
X017806Y034639D01*
X017827Y034618D01*
X017851Y034599D01*
X017877Y034584D01*
X017904Y034571D01*
X017933Y034562D01*
X017963Y034557D01*
X017993Y034555D01*
X018805Y034555D01*
X018835Y034553D01*
X018865Y034548D01*
X018894Y034539D01*
X018921Y034526D01*
X018947Y034511D01*
X018971Y034492D01*
X018992Y034471D01*
X019011Y034447D01*
X019026Y034421D01*
X019039Y034394D01*
X019048Y034365D01*
X019053Y034335D01*
X019055Y034305D01*
X019055Y030180D01*
X019053Y030150D01*
X019048Y030120D01*
X019039Y030091D01*
X019026Y030064D01*
X019011Y030038D01*
X018992Y030014D01*
X018971Y029993D01*
X018947Y029974D01*
X018921Y029959D01*
X018894Y029946D01*
X018865Y029937D01*
X018835Y029932D01*
X018805Y029930D01*
X017954Y029930D01*
X017954Y030430D02*
X016118Y030430D01*
X016088Y030432D01*
X016058Y030437D01*
X016029Y030446D01*
X016002Y030459D01*
X015976Y030474D01*
X015952Y030493D01*
X015931Y030514D01*
X015912Y030538D01*
X015897Y030564D01*
X015884Y030591D01*
X015875Y030620D01*
X015870Y030650D01*
X015868Y030680D01*
X019305Y028930D02*
X019305Y025493D01*
X019307Y025460D01*
X019312Y025428D01*
X019320Y025396D01*
X019332Y025366D01*
X019347Y025337D01*
X019365Y025309D01*
X019385Y025284D01*
X019409Y025260D01*
X019434Y025240D01*
X019462Y025222D01*
X019491Y025207D01*
X019521Y025195D01*
X019553Y025187D01*
X019585Y025182D01*
X019618Y025180D01*
X021680Y025180D01*
X020680Y025680D02*
X020430Y025680D01*
X020394Y025679D01*
X020358Y025681D01*
X020323Y025688D01*
X020288Y025697D01*
X020254Y025711D01*
X020222Y025728D01*
X020192Y025748D01*
X020165Y025771D01*
X020139Y025797D01*
X020117Y025825D01*
X020098Y025856D01*
X020082Y025888D01*
X020069Y025922D01*
X020061Y025957D01*
X020055Y025993D01*
X020055Y028368D01*
X020055Y028367D02*
X020063Y028404D01*
X020075Y028439D01*
X020089Y028474D01*
X020108Y028506D01*
X020129Y028537D01*
X020153Y028565D01*
X020180Y028591D01*
X020209Y028614D01*
X020241Y028634D01*
X020274Y028651D01*
X020308Y028665D01*
X020344Y028675D01*
X020381Y028682D01*
X020418Y028685D01*
X020455Y028684D01*
X020492Y028680D01*
X020493Y028680D02*
X021368Y028680D01*
X021401Y028682D01*
X021433Y028687D01*
X021465Y028695D01*
X021495Y028707D01*
X021525Y028722D01*
X021552Y028740D01*
X021577Y028760D01*
X021601Y028784D01*
X021621Y028809D01*
X021639Y028837D01*
X021654Y028866D01*
X021666Y028896D01*
X021674Y028928D01*
X021679Y028960D01*
X021681Y028993D01*
X021680Y028993D02*
X021680Y029680D01*
X021678Y029710D01*
X021673Y029740D01*
X021664Y029769D01*
X021651Y029796D01*
X021636Y029822D01*
X021617Y029846D01*
X021596Y029867D01*
X021572Y029886D01*
X021546Y029901D01*
X021519Y029914D01*
X021490Y029923D01*
X021460Y029928D01*
X021430Y029930D01*
X020906Y029930D01*
X020906Y030430D02*
X020180Y030430D01*
X020150Y030428D01*
X020120Y030423D01*
X020091Y030414D01*
X020064Y030401D01*
X020038Y030386D01*
X020014Y030367D01*
X019993Y030346D01*
X019974Y030322D01*
X019959Y030296D01*
X019946Y030269D01*
X019937Y030240D01*
X019932Y030210D01*
X019930Y030180D01*
X019930Y029430D01*
X019924Y029401D01*
X019914Y029374D01*
X019901Y029348D01*
X019885Y029325D01*
X019866Y029303D01*
X019844Y029284D01*
X019819Y029268D01*
X019793Y029256D01*
X019766Y029247D01*
X019737Y029242D01*
X019709Y029240D01*
X019680Y029242D01*
X019680Y029243D02*
X019555Y029243D01*
X019555Y029242D02*
X019523Y029237D01*
X019493Y029228D01*
X019464Y029216D01*
X019436Y029201D01*
X019410Y029183D01*
X019386Y029161D01*
X019365Y029138D01*
X019347Y029112D01*
X019331Y029084D01*
X019319Y029055D01*
X019310Y029024D01*
X019305Y028993D01*
X019303Y028961D01*
X019305Y028930D01*
X020906Y030930D02*
X022055Y030930D01*
X022055Y030931D02*
X022088Y030929D01*
X022120Y030924D01*
X022152Y030916D01*
X022182Y030904D01*
X022212Y030889D01*
X022239Y030871D01*
X022264Y030851D01*
X022288Y030827D01*
X022308Y030802D01*
X022326Y030775D01*
X022341Y030745D01*
X022353Y030715D01*
X022361Y030683D01*
X022366Y030651D01*
X022368Y030618D01*
X022368Y027993D01*
X023180Y028180D02*
X023180Y031118D01*
X023181Y031118D02*
X023179Y031151D01*
X023174Y031183D01*
X023166Y031215D01*
X023154Y031245D01*
X023139Y031275D01*
X023121Y031302D01*
X023101Y031327D01*
X023077Y031351D01*
X023052Y031371D01*
X023025Y031389D01*
X022995Y031404D01*
X022965Y031416D01*
X022933Y031424D01*
X022901Y031429D01*
X022868Y031431D01*
X022868Y031430D02*
X020906Y031430D01*
X022367Y027993D02*
X022369Y027925D01*
X022375Y027856D01*
X022384Y027788D01*
X022398Y027721D01*
X022415Y027655D01*
X022436Y027590D01*
X022461Y027526D01*
X022489Y027463D01*
X022520Y027403D01*
X022555Y027344D01*
X022594Y027287D01*
X022635Y027232D01*
X022680Y027180D01*
X027680Y027180D02*
X027680Y029430D01*
X028253Y028878D02*
X029357Y029982D01*
X029534Y030055D02*
X030305Y030055D01*
X030335Y030057D01*
X030365Y030062D01*
X030394Y030071D01*
X030421Y030084D01*
X030447Y030099D01*
X030471Y030118D01*
X030492Y030139D01*
X030511Y030163D01*
X030526Y030189D01*
X030539Y030216D01*
X030548Y030245D01*
X030553Y030275D01*
X030555Y030305D01*
X030555Y031680D01*
X030557Y031710D01*
X030562Y031740D01*
X030571Y031769D01*
X030584Y031796D01*
X030599Y031822D01*
X030618Y031846D01*
X030639Y031867D01*
X030663Y031886D01*
X030689Y031901D01*
X030716Y031914D01*
X030745Y031923D01*
X030775Y031928D01*
X030805Y031930D01*
X031680Y031930D01*
X029534Y030055D02*
X029506Y030053D01*
X029478Y030049D01*
X029451Y030041D01*
X029426Y030030D01*
X029401Y030017D01*
X029378Y030000D01*
X029357Y029982D01*
X028253Y028878D02*
X028235Y028857D01*
X028218Y028834D01*
X028205Y028809D01*
X028194Y028784D01*
X028186Y028757D01*
X028182Y028729D01*
X028180Y028701D01*
X028180Y028180D01*
X033180Y028180D02*
X033180Y028743D01*
X033182Y028773D01*
X033187Y028803D01*
X033196Y028832D01*
X033209Y028859D01*
X033224Y028885D01*
X033243Y028909D01*
X033264Y028930D01*
X033288Y028949D01*
X033314Y028964D01*
X033341Y028977D01*
X033370Y028986D01*
X033400Y028991D01*
X033430Y028993D01*
X035305Y028993D01*
X035335Y028995D01*
X035365Y029000D01*
X035394Y029009D01*
X035421Y029022D01*
X035447Y029037D01*
X035471Y029056D01*
X035492Y029077D01*
X035511Y029101D01*
X035526Y029127D01*
X035539Y029154D01*
X035548Y029183D01*
X035553Y029213D01*
X035555Y029243D01*
X035555Y029743D01*
X040555Y026930D02*
X040555Y024930D01*
X040553Y024900D01*
X040548Y024870D01*
X040539Y024841D01*
X040526Y024814D01*
X040511Y024788D01*
X040492Y024764D01*
X040471Y024743D01*
X040447Y024724D01*
X040421Y024709D01*
X040394Y024696D01*
X040365Y024687D01*
X040335Y024682D01*
X040305Y024680D01*
X036680Y024680D01*
X035680Y024180D02*
X041430Y024180D01*
X041460Y024182D01*
X041490Y024187D01*
X041519Y024196D01*
X041546Y024209D01*
X041572Y024224D01*
X041596Y024243D01*
X041617Y024264D01*
X041636Y024288D01*
X041651Y024314D01*
X041664Y024341D01*
X041673Y024370D01*
X041678Y024400D01*
X041680Y024430D01*
X041680Y024993D01*
X041680Y024992D02*
X041674Y025023D01*
X041672Y025054D01*
X041674Y025085D01*
X041679Y025116D01*
X041688Y025146D01*
X041701Y025174D01*
X041717Y025201D01*
X041736Y025225D01*
X041758Y025248D01*
X041783Y025267D01*
X041809Y025283D01*
X041838Y025296D01*
X041867Y025305D01*
X041868Y025305D02*
X044680Y025305D01*
X047430Y025305D01*
X047463Y025307D01*
X047495Y025312D01*
X047527Y025320D01*
X047557Y025332D01*
X047587Y025347D01*
X047614Y025365D01*
X047639Y025385D01*
X047663Y025409D01*
X047683Y025434D01*
X047701Y025462D01*
X047716Y025491D01*
X047728Y025521D01*
X047736Y025553D01*
X047741Y025585D01*
X047743Y025618D01*
X047743Y025806D01*
X047741Y025836D01*
X047736Y025866D01*
X047727Y025895D01*
X047714Y025922D01*
X047699Y025948D01*
X047680Y025972D01*
X047659Y025993D01*
X047635Y026012D01*
X047609Y026027D01*
X047582Y026040D01*
X047553Y026049D01*
X047523Y026054D01*
X047493Y026056D01*
X047129Y026056D01*
X047129Y026804D02*
X047575Y026804D01*
X047752Y026877D02*
X048544Y027607D01*
X048721Y027680D02*
X049430Y027680D01*
X048721Y027680D02*
X048693Y027678D01*
X048665Y027674D01*
X048638Y027666D01*
X048613Y027655D01*
X048588Y027642D01*
X048565Y027625D01*
X048544Y027607D01*
X047752Y026877D02*
X047731Y026859D01*
X047708Y026842D01*
X047683Y026829D01*
X047658Y026818D01*
X047631Y026810D01*
X047603Y026806D01*
X047575Y026804D01*
X046106Y026804D02*
X045055Y026804D01*
X045019Y026805D01*
X044983Y026803D01*
X044948Y026796D01*
X044913Y026787D01*
X044879Y026773D01*
X044847Y026756D01*
X044817Y026736D01*
X044790Y026713D01*
X044764Y026687D01*
X044742Y026659D01*
X044723Y026628D01*
X044707Y026596D01*
X044694Y026562D01*
X044686Y026527D01*
X044680Y026491D01*
X044680Y026492D02*
X044680Y025305D01*
X038743Y019430D02*
X038743Y016118D01*
X038745Y016088D01*
X038750Y016058D01*
X038759Y016029D01*
X038772Y016002D01*
X038787Y015976D01*
X038806Y015952D01*
X038827Y015931D01*
X038851Y015912D01*
X038877Y015897D01*
X038904Y015884D01*
X038933Y015875D01*
X038963Y015870D01*
X038993Y015868D01*
X041826Y015868D01*
X042066Y015794D02*
X043044Y014878D01*
X043221Y014805D02*
X044680Y014805D01*
X044710Y014803D01*
X044740Y014798D01*
X044769Y014789D01*
X044796Y014776D01*
X044822Y014761D01*
X044846Y014742D01*
X044867Y014721D01*
X044886Y014697D01*
X044901Y014671D01*
X044914Y014644D01*
X044923Y014615D01*
X044928Y014585D01*
X044930Y014555D01*
X044930Y012243D01*
X044928Y012213D01*
X044923Y012183D01*
X044914Y012154D01*
X044901Y012127D01*
X044886Y012101D01*
X044867Y012077D01*
X044846Y012056D01*
X044822Y012037D01*
X044796Y012022D01*
X044769Y012009D01*
X044740Y012000D01*
X044710Y011995D01*
X044680Y011993D01*
X043720Y011993D01*
X043720Y013493D02*
X043118Y013493D01*
X043088Y013495D01*
X043058Y013500D01*
X043029Y013509D01*
X043002Y013522D01*
X042976Y013537D01*
X042952Y013556D01*
X042931Y013577D01*
X042912Y013601D01*
X042897Y013627D01*
X042884Y013654D01*
X042875Y013683D01*
X042870Y013713D01*
X042868Y013743D01*
X042868Y014076D01*
X042794Y014253D02*
X042066Y014982D01*
X041889Y015055D02*
X038618Y015055D01*
X038617Y015055D02*
X038586Y015053D01*
X038554Y015055D01*
X038523Y015060D01*
X038492Y015069D01*
X038463Y015081D01*
X038435Y015097D01*
X038409Y015115D01*
X038386Y015136D01*
X038364Y015160D01*
X038346Y015186D01*
X038331Y015214D01*
X038319Y015243D01*
X038310Y015273D01*
X038305Y015305D01*
X038305Y018930D01*
X038303Y018960D01*
X038298Y018990D01*
X038289Y019019D01*
X038276Y019046D01*
X038261Y019072D01*
X038242Y019096D01*
X038221Y019117D01*
X038197Y019136D01*
X038171Y019151D01*
X038144Y019164D01*
X038115Y019173D01*
X038085Y019178D01*
X038055Y019180D01*
X035680Y019180D01*
X036680Y018680D02*
X037618Y018680D01*
X037648Y018678D01*
X037678Y018673D01*
X037707Y018664D01*
X037734Y018651D01*
X037760Y018636D01*
X037784Y018617D01*
X037805Y018596D01*
X037824Y018572D01*
X037839Y018546D01*
X037852Y018519D01*
X037861Y018490D01*
X037866Y018460D01*
X037868Y018430D01*
X037868Y013368D01*
X037870Y013338D01*
X037875Y013308D01*
X037884Y013279D01*
X037897Y013252D01*
X037912Y013226D01*
X037931Y013202D01*
X037952Y013181D01*
X037976Y013162D01*
X038002Y013147D01*
X038029Y013134D01*
X038058Y013125D01*
X038088Y013120D01*
X038118Y013118D01*
X040418Y013118D01*
X041889Y015055D02*
X041917Y015053D01*
X041945Y015049D01*
X041972Y015041D01*
X041997Y015030D01*
X042022Y015017D01*
X042045Y015000D01*
X042066Y014982D01*
X042066Y015794D02*
X042040Y015813D01*
X042013Y015830D01*
X041984Y015844D01*
X041954Y015855D01*
X041923Y015863D01*
X041891Y015867D01*
X041859Y015869D01*
X041827Y015868D01*
X043044Y014878D02*
X043065Y014860D01*
X043088Y014843D01*
X043113Y014830D01*
X043138Y014819D01*
X043165Y014811D01*
X043193Y014807D01*
X043221Y014805D01*
X042795Y014253D02*
X042813Y014232D01*
X042830Y014209D01*
X042843Y014184D01*
X042854Y014159D01*
X042862Y014132D01*
X042866Y014104D01*
X042868Y014076D01*
X037430Y011555D02*
X037430Y017930D01*
X037428Y017960D01*
X037423Y017990D01*
X037414Y018019D01*
X037401Y018046D01*
X037386Y018072D01*
X037367Y018096D01*
X037346Y018117D01*
X037322Y018136D01*
X037296Y018151D01*
X037269Y018164D01*
X037240Y018173D01*
X037210Y018178D01*
X037180Y018180D01*
X035680Y018180D01*
X036680Y019680D02*
X038493Y019680D01*
X038523Y019678D01*
X038553Y019673D01*
X038582Y019664D01*
X038609Y019651D01*
X038635Y019636D01*
X038659Y019617D01*
X038680Y019596D01*
X038699Y019572D01*
X038714Y019546D01*
X038727Y019519D01*
X038736Y019490D01*
X038741Y019460D01*
X038743Y019430D01*
X037430Y011555D02*
X037428Y011525D01*
X037423Y011495D01*
X037414Y011466D01*
X037401Y011439D01*
X037386Y011413D01*
X037367Y011389D01*
X037346Y011368D01*
X037322Y011349D01*
X037296Y011334D01*
X037269Y011321D01*
X037240Y011312D01*
X037210Y011307D01*
X037180Y011305D01*
X019368Y011305D01*
X019367Y011305D02*
X019342Y011308D01*
X019317Y011307D01*
X019293Y011302D01*
X019270Y011293D01*
X019248Y011281D01*
X019228Y011266D01*
X019211Y011248D01*
X019197Y011227D01*
X019187Y011204D01*
X019180Y011180D01*
X019181Y011180D02*
X019179Y011155D01*
X019175Y011131D01*
X019167Y011108D01*
X019156Y011086D01*
X019142Y011066D01*
X019126Y011047D01*
X019107Y011031D01*
X019087Y011017D01*
X019065Y011006D01*
X019042Y010998D01*
X019018Y010994D01*
X018993Y010992D01*
X018993Y010993D02*
X018430Y010993D01*
X018400Y010995D01*
X018370Y011000D01*
X018341Y011009D01*
X018314Y011022D01*
X018288Y011037D01*
X018264Y011056D01*
X018243Y011077D01*
X018224Y011101D01*
X018209Y011127D01*
X018196Y011154D01*
X018187Y011183D01*
X018182Y011213D01*
X018180Y011243D01*
X018180Y012178D01*
X018680Y012178D02*
X018680Y011493D01*
X017680Y011680D02*
X017680Y012178D01*
X017681Y011680D02*
X017679Y011655D01*
X017675Y011631D01*
X017667Y011608D01*
X017656Y011586D01*
X017642Y011566D01*
X017626Y011547D01*
X017607Y011531D01*
X017587Y011517D01*
X017565Y011506D01*
X017542Y011498D01*
X017518Y011494D01*
X017493Y011492D01*
X017493Y011493D02*
X016430Y011493D01*
X016400Y011495D01*
X016370Y011500D01*
X016341Y011509D01*
X016314Y011522D01*
X016288Y011537D01*
X016264Y011556D01*
X016243Y011577D01*
X016224Y011601D01*
X016209Y011627D01*
X016196Y011654D01*
X016187Y011683D01*
X016182Y011713D01*
X016180Y011743D01*
X016180Y015993D01*
X016182Y016023D01*
X016187Y016053D01*
X016196Y016082D01*
X016209Y016109D01*
X016224Y016135D01*
X016243Y016159D01*
X016264Y016180D01*
X016288Y016199D01*
X016314Y016214D01*
X016341Y016227D01*
X016370Y016236D01*
X016400Y016241D01*
X016430Y016243D01*
X018618Y016243D01*
X019555Y017180D01*
X021680Y017180D01*
X020680Y016680D02*
X019680Y016680D01*
X018680Y015680D01*
X018680Y014932D01*
X019180Y014932D02*
X019180Y015430D01*
X019182Y015460D01*
X019187Y015490D01*
X019196Y015519D01*
X019209Y015546D01*
X019224Y015572D01*
X019243Y015596D01*
X019264Y015617D01*
X019288Y015636D01*
X019314Y015651D01*
X019341Y015664D01*
X019370Y015673D01*
X019400Y015678D01*
X019430Y015680D01*
X020680Y015680D01*
M02*
